<svg version="1.1" viewBox="0.0 0.0 600.0 371.0" fill="none" stroke="none" stroke-linecap="square" stroke-miterlimit="10" width="600" height="371" xmlns:xlink="http://www.w3.org/1999/xlink" xmlns="http://www.w3.org/2000/svg"><path fill="#ffffff" d="M0 0L600.0 0L600.0 371.0L0 371.0L0 0Z" fill-rule="nonzero"/><path fill="#4285f4" d="M300.0 18.55C335.25638 18.55 369.60773 29.711435 398.13074 50.434612L349.06537 117.96731C334.80386 107.60572 317.62817 102.025 300.0 102.025Z" fill-rule="nonzero"/><path fill="#ea4335" d="M398.13074 50.434612C437.67276 79.16357 462.63934 123.77748 466.44354 172.50583C470.24774 221.23418 452.50742 269.1822 417.90305 303.69974L358.9515 244.59987C376.25372 227.3411 385.12387 203.3671 383.22177 179.00291C381.31967 154.63873 368.8364 132.33179 349.06537 117.96731Z" fill-rule="nonzero"/><path fill="#fbbc04" d="M417.90305 303.69974C412.95026 308.64008 407.6919 313.26422 402.15897 317.54486L351.0795 251.52243C353.84595 249.38211 356.47513 247.07004 358.9515 244.59987Z" fill-rule="nonzero"/><path fill="#34a853" d="M402.15897 317.54486C396.62607 321.8255 390.8296 325.75415 384.8038 329.30756L342.40192 257.40378C345.4148 255.62708 348.31305 253.66275 351.0795 251.52243Z" fill-rule="nonzero"/><path fill="#ff6d01" d="M384.8038 329.30756C369.7133 338.2065 353.31613 344.67477 336.21423 348.47495L318.10712 266.98746C326.65805 265.0874 334.85663 261.85324 342.40192 257.40378Z" fill-rule="nonzero"/><path fill="#f07b72" d="M289.51712 18.879438C293.0071 18.659866 296.5031 18.55 300.0 18.55L300.0 102.025C298.25156 102.025 296.50354 102.07993 294.75858 102.18972Z" fill-rule="nonzero"/><path fill="#7baaf7" d="M238.54161 30.273815C254.83035 23.824642 272.03268 19.979465 289.51712 18.879438L294.75858 102.18972C286.01636 102.73973 277.4152 104.66232 269.2708 107.88691Z" fill-rule="nonzero"/><path fill="#46bdc6" d="M336.21423 348.47495C251.20406 367.36484 165.95334 317.73978 140.39954 234.48976C114.84574 151.23976 157.57329 62.331444 238.54161 30.273815L269.2708 107.88691C228.78664 123.91572 207.42287 168.36987 220.19977 209.99489C232.97667 251.61989 275.60202 276.4324 318.10712 266.98746Z" fill-rule="nonzero"/><path fill="#1a1a1a" d="M19.440624 29.55L19.440624 20.95625L21.159374 20.95625L23.190624 27.034374Q23.471874 27.89375 23.596874 28.315624Q23.7375 27.846874 24.05 26.940624L26.1125 20.95625L27.64375 20.95625L27.64375 29.55L26.55 29.55L26.55 22.3625L24.05 29.55L23.01875 29.55L20.534374 22.2375L20.534374 29.55L19.440624 29.55ZM32.409374 28.784374Q31.815624 29.284374 31.26875 29.4875Q30.7375 29.690624 30.1125 29.690624Q29.08125 29.690624 28.534374 29.190624Q27.9875 28.690624 27.9875 27.909374Q27.9875 27.45625 28.190624 27.08125Q28.39375 26.690624 28.7375 26.471874Q29.08125 26.2375 29.503124 26.128124Q29.8 26.034374 30.440624 25.95625Q31.70625 25.815624 32.315624 25.596874Q32.315624 25.378124 32.315624 25.33125Q32.315624 24.675 32.01875 24.409374Q31.6125 24.065624 30.815624 24.065624Q30.08125 24.065624 29.721874 24.33125Q29.3625 24.58125 29.190624 25.2375L28.159374 25.096874Q28.3 24.440624 28.628124 24.034374Q28.95625 23.628124 29.565624 23.409374Q30.175 23.190624 30.971874 23.190624Q31.76875 23.190624 32.26875 23.378124Q32.76875 23.565624 33.003124 23.846874Q33.2375 24.128124 33.33125 24.565624Q33.378124 24.83125 33.378124 25.534374L33.378124 26.940624Q33.378124 28.409374 33.440624 28.8Q33.51875 29.190624 33.721874 29.55L32.6125 29.55Q32.45625 29.221874 32.409374 28.784374ZM32.315624 26.425Q31.7375 26.659374 30.596874 26.83125Q29.940624 26.925 29.675 27.05Q29.409374 27.159374 29.253124 27.378124Q29.1125 27.596874 29.1125 27.878124Q29.1125 28.3 29.425 28.58125Q29.753124 28.8625 30.3625 28.8625Q30.971874 28.8625 31.440624 28.596874Q31.925 28.33125 32.14375 27.8625Q32.315624 27.503124 32.315624 26.815624L32.315624 26.425ZM35.33125 29.55L35.33125 23.33125L36.284374 23.33125L36.284374 24.26875Q36.64375 23.6125 36.940624 23.409374Q37.253124 23.190624 37.628124 23.190624Q38.159374 23.190624 38.70625 23.51875L38.346874 24.503124Q37.95625 24.26875 37.58125 24.26875Q37.221874 24.26875 36.940624 24.4875Q36.675 24.690624 36.565624 25.065624Q36.378124 25.628124 36.378124 26.284374L36.378124 29.55L35.33125 29.55ZM39.346874 29.55L39.346874 20.95625L40.409374 20.95625L40.409374 25.8625L42.89375 23.33125L44.26875 23.33125L41.878124 25.628124L44.503124 29.55L43.20625 29.55L41.14375 26.3625L40.409374 27.08125L40.409374 29.55L39.346874 29.55ZM49.596874 27.55L50.690624 27.675Q50.440624 28.628124 49.7375 29.159374Q49.034374 29.690624 47.95625 29.690624Q46.596874 29.690624 45.784374 28.846874Q44.9875 28.003124 44.9875 26.4875Q44.9875 24.925 45.8 24.065624Q46.6125 23.190624 47.89375 23.190624Q49.14375 23.190624 49.925 24.034374Q50.721874 24.878124 50.721874 26.425Q50.721874 26.51875 50.721874 26.70625L46.08125 26.70625Q46.14375 27.7375 46.659374 28.284374Q47.175 28.815624 47.95625 28.815624Q48.534374 28.815624 48.940624 28.51875Q49.3625 28.20625 49.596874 27.55ZM46.14375 25.846874L49.6125 25.846874Q49.55 25.05 49.221874 24.659374Q48.70625 24.05 47.909374 24.05Q47.175 24.05 46.675 24.534374Q46.190624 25.01875 46.14375 25.846874ZM54.64375 28.6125L54.8 29.534374Q54.346874 29.628124 54.003124 29.628124Q53.425 29.628124 53.1125 29.45625Q52.8 29.26875 52.659374 28.971874Q52.534374 28.675 52.534374 27.721874L52.534374 24.14375L51.76875 24.14375L51.76875 23.33125L52.534374 23.33125L52.534374 21.784374L53.58125 21.159374L53.58125 23.33125L54.64375 23.33125L54.64375 24.14375L53.58125 24.14375L53.58125 27.784374Q53.58125 28.2375 53.628124 28.3625Q53.690624 28.4875 53.815624 28.565624Q53.940624 28.64375 54.175 28.64375Q54.3625 28.64375 54.64375 28.6125ZM55.346874 22.175L55.346874 20.95625L56.409374 20.95625L56.409374 22.175L55.346874 22.175ZM55.346874 29.55L55.346874 23.33125L56.409374 23.33125L56.409374 29.55L55.346874 29.55ZM58.346874 29.55L58.346874 23.33125L59.284374 23.33125L59.284374 24.20625Q59.971874 23.190624 61.26875 23.190624Q61.83125 23.190624 62.3 23.39375Q62.784374 23.596874 63.01875 23.925Q63.253124 24.253124 63.346874 24.690624Q63.39375 24.9875 63.39375 25.721874L63.39375 29.55L62.346874 29.55L62.346874 25.76875Q62.346874 25.1125 62.221874 24.8Q62.096874 24.4875 61.784374 24.3Q61.471874 24.096874 61.05 24.096874Q60.378124 24.096874 59.878124 24.534374Q59.39375 24.95625 59.39375 26.14375L59.39375 29.55L58.346874 29.55ZM65.14375 30.065624L66.175 30.221874Q66.2375 30.690624 66.53438 30.909374Q66.925 31.20625 67.59688 31.20625Q68.33125 31.20625 68.72188 30.909374Q69.12813 30.6125 69.26875 30.096874Q69.3625 29.76875 69.34688 28.7375Q68.65938 29.55 67.62813 29.55Q66.34688 29.55 65.64375 28.628124Q64.94063 27.690624 64.94063 26.409374Q64.94063 25.51875 65.25313 24.76875Q65.58125 24.003124 66.19063 23.596874Q66.8 23.190624 67.62813 23.190624Q68.7375 23.190624 69.45625 24.08125L69.45625 23.33125L70.425 23.33125L70.425 28.70625Q70.425 30.159374 70.12813 30.76875Q69.83125 31.378124 69.19063 31.721874Q68.55 32.08125 67.6125 32.08125Q66.50313 32.08125 65.81563 31.58125Q65.12813 31.08125 65.14375 30.065624ZM66.01875 26.33125Q66.01875 27.55 66.50313 28.1125Q66.9875 28.675 67.72188 28.675Q68.45625 28.675 68.94063 28.1125Q69.44063 27.55 69.44063 26.3625Q69.44063 25.221874 68.925 24.64375Q68.425 24.065624 67.70625 24.065624Q67.00313 24.065624 66.50313 24.64375Q66.01875 25.20625 66.01875 26.33125Z" fill-rule="nonzero"/><path fill="#9e9e9e" d="M19.05 44.3L20.159374 44.20625Q20.284374 45.01875 20.721874 45.425Q21.175 45.83125 21.815624 45.83125Q22.565624 45.83125 23.096874 45.253124Q23.628124 44.675 23.628124 43.7375Q23.628124 42.83125 23.1125 42.315624Q22.6125 41.784374 21.784374 41.784374Q21.284374 41.784374 20.8625 42.01875Q20.45625 42.253124 20.221874 42.6125L19.2375 42.4875L20.065624 38.08125L24.346874 38.08125L24.346874 39.08125L20.909374 39.08125L20.45625 41.39375Q21.221874 40.846874 22.065624 40.846874Q23.190624 40.846874 23.95625 41.628124Q24.7375 42.409374 24.7375 43.64375Q24.7375 44.8 24.065624 45.659374Q23.2375 46.690624 21.815624 46.690624Q20.64375 46.690624 19.89375 46.034374Q19.159374 45.378124 19.05 44.3ZM26.64375 46.55L26.64375 45.346874L27.846874 45.346874L27.846874 46.55L26.64375 46.55ZM29.05 42.315624Q29.05 40.784374 29.3625 39.8625Q29.675 38.925 30.284374 38.425Q30.909374 37.925 31.846874 37.925Q32.534374 37.925 33.05 38.20625Q33.58125 38.4875 33.925 39.01875Q34.26875 39.534374 34.45625 40.284374Q34.64375 41.034374 34.64375 42.315624Q34.64375 43.83125 34.33125 44.753124Q34.034374 45.675 33.409374 46.190624Q32.8 46.690624 31.846874 46.690624Q30.6125 46.690624 29.89375 45.8Q29.05 44.7375 29.05 42.315624ZM30.128124 42.315624Q30.128124 44.425 30.628124 45.128124Q31.128124 45.83125 31.846874 45.83125Q32.58125 45.83125 33.065624 45.128124Q33.565624 44.425 33.565624 42.315624Q33.565624 40.190624 33.065624 39.503124Q32.58125 38.8 31.83125 38.8Q31.1125 38.8 30.675 39.409374Q30.128124 40.190624 30.128124 42.315624ZM36.253124 40.01875Q36.253124 39.096874 36.70625 38.45625Q37.175 37.815624 38.05 37.815624Q38.8625 37.815624 39.39375 38.39375Q39.925 38.971874 39.925 40.08125Q39.925 41.175 39.378124 41.76875Q38.846874 42.346874 38.065624 42.346874Q37.284374 42.346874 36.76875 41.76875Q36.253124 41.190624 36.253124 40.01875ZM38.08125 38.534374Q37.690624 38.534374 37.425 38.878124Q37.175 39.221874 37.175 40.128124Q37.175 40.95625 37.425 41.3Q37.690624 41.628124 38.08125 41.628124Q38.4875 41.628124 38.7375 41.284374Q39.003124 40.940624 39.003124 40.05Q39.003124 39.20625 38.7375 38.878124Q38.471874 38.534374 38.08125 38.534374ZM38.08125 46.8625L42.784374 37.815624L43.64375 37.815624L38.95625 46.8625L38.08125 46.8625ZM41.8 44.534374Q41.8 43.6125 42.253124 42.971874Q42.721874 42.33125 43.6125 42.33125Q44.425 42.33125 44.95625 42.909374Q45.4875 43.471874 45.4875 44.596874Q45.4875 45.690624 44.940624 46.284374Q44.409374 46.8625 43.6125 46.8625Q42.846874 46.8625 42.315624 46.284374Q41.8 45.70625 41.8 44.534374ZM43.64375 43.05Q43.2375 43.05 42.971874 43.39375Q42.721874 43.7375 42.721874 44.64375Q42.721874 45.45625 42.9875 45.8Q43.253124 46.14375 43.64375 46.14375Q44.034374 46.14375 44.3 45.8Q44.565624 45.45625 44.565624 44.55Q44.565624 43.721874 44.3 43.39375Q44.034374 43.05 43.64375 43.05Z" fill-rule="nonzero"/><path stroke="#757575" stroke-width="1.0" stroke-linecap="butt" d="M18.55 34.05L127.05 34.05L265.40195 30.717161" fill-rule="nonzero"/><path fill="#9e9e9e" d="M267.40195 30.717161C267.40195 29.612593 266.5065 28.717161 265.40195 28.717161C264.29736 28.717161 263.40195 29.612593 263.40195 30.717161C263.40195 31.821732 264.29736 32.717163 265.40195 32.717163C266.5065 32.717163 267.40195 31.821732 267.40195 30.717161" fill-rule="nonzero"/><path fill="#1a1a1a" d="M19.471874 227.54027L19.471874 218.94652L22.721874 218.94652Q23.565624 218.94652 24.01875 219.02464Q24.659374 219.13402 25.08125 219.4309Q25.51875 219.72777 25.76875 220.25902Q26.034374 220.79027 26.034374 221.4309Q26.034374 222.52464 25.33125 223.29027Q24.64375 224.04027 22.815624 224.04027L20.6125 224.04027L20.6125 227.54027L19.471874 227.54027ZM20.6125 223.04027L22.83125 223.04027Q23.940624 223.04027 24.39375 222.63402Q24.8625 222.21214 24.8625 221.46214Q24.8625 220.9309 24.58125 220.5559Q24.315624 220.16527 23.878124 220.04027Q23.58125 219.96214 22.815624 219.96214L20.6125 219.96214L20.6125 223.04027ZM31.425 227.54027L31.425 226.6184Q30.690624 227.6809 29.440624 227.6809Q28.89375 227.6809 28.409374 227.47777Q27.940624 227.25902 27.70625 226.94652Q27.471874 226.6184 27.378124 226.14964Q27.315624 225.85277 27.315624 225.16527L27.315624 221.32152L28.378124 221.32152L28.378124 224.77464Q28.378124 225.58714 28.440624 225.88402Q28.534374 226.29027 28.846874 226.54027Q29.175 226.77464 29.659374 226.77464Q30.128124 226.77464 30.534374 226.54027Q30.95625 226.29027 31.128124 225.8684Q31.315624 225.44652 31.315624 224.64964L31.315624 221.32152L32.3625 221.32152L32.3625 227.54027L31.425 227.54027ZM35.315624 227.54027L34.33125 227.54027L34.33125 218.94652L35.39375 218.94652L35.39375 222.00902Q36.065624 221.1809 37.096874 221.1809Q37.675 221.1809 38.175 221.41527Q38.690624 221.63402 39.01875 222.0559Q39.3625 222.47777 39.55 223.07152Q39.7375 223.66527 39.7375 224.33714Q39.7375 225.9309 38.940624 226.8059Q38.14375 227.6809 37.05 227.6809Q35.940624 227.6809 35.315624 226.75902L35.315624 227.54027ZM35.3 224.38402Q35.3 225.4934 35.6125 225.9934Q36.1125 226.8059 36.95625 226.8059Q37.64375 226.8059 38.14375 226.21214Q38.659374 225.6184 38.659374 224.41527Q38.659374 223.19652 38.175 222.6184Q37.690624 222.04027 37.003124 222.04027Q36.315624 222.04027 35.8 222.64964Q35.3 223.2434 35.3 224.38402ZM41.315624 227.54027L41.315624 218.94652L42.378124 218.94652L42.378124 227.54027L41.315624 227.54027ZM44.346874 220.16527L44.346874 218.94652L45.409374 218.94652L45.409374 220.16527L44.346874 220.16527ZM44.346874 227.54027L44.346874 221.32152L45.409374 221.32152L45.409374 227.54027L44.346874 227.54027ZM51.409374 225.25902L52.440624 225.39964Q52.26875 226.46214 51.565624 227.07152Q50.8625 227.6809 49.846874 227.6809Q48.565624 227.6809 47.784374 226.85277Q47.01875 226.00902 47.01875 224.44652Q47.01875 223.44652 47.346874 222.69652Q47.690624 221.9309 48.3625 221.5559Q49.05 221.1809 49.8625 221.1809Q50.8625 221.1809 51.503124 221.69652Q52.159374 222.19652 52.346874 223.14964L51.315624 223.3059Q51.175 222.6809 50.8 222.3684Q50.425 222.04027 49.89375 222.04027Q49.096874 222.04027 48.596874 222.6184Q48.096874 223.1809 48.096874 224.41527Q48.096874 225.6809 48.58125 226.2434Q49.065624 226.8059 49.83125 226.8059Q50.45625 226.8059 50.8625 226.4309Q51.284374 226.0559 51.409374 225.25902ZM56.096874 224.77464L57.159374 224.6809Q57.2375 225.33714 57.51875 225.7434Q57.8 226.14964 58.378124 226.41527Q58.971874 226.66527 59.70625 226.66527Q60.346874 226.66527 60.846874 226.47777Q61.346874 226.27464 61.58125 225.94652Q61.83125 225.60277 61.83125 225.21214Q61.83125 224.8059 61.596874 224.50902Q61.3625 224.19652 60.83125 223.9934Q60.471874 223.85277 59.284374 223.57152Q58.1125 223.29027 57.64375 223.04027Q57.01875 222.71214 56.721874 222.2434Q56.425 221.75902 56.425 221.16527Q56.425 220.52464 56.784374 219.96214Q57.159374 219.38402 57.8625 219.10277Q58.58125 218.8059 59.440624 218.8059Q60.39375 218.8059 61.128124 219.1184Q61.8625 219.41527 62.253124 220.02464Q62.64375 220.6184 62.675 221.3684L61.58125 221.44652Q61.4875 220.63402 60.971874 220.22777Q60.471874 219.8059 59.4875 219.8059Q58.45625 219.8059 57.9875 220.1809Q57.51875 220.5559 57.51875 221.08714Q57.51875 221.5559 57.846874 221.85277Q58.175 222.14964 59.55 222.46214Q60.940624 222.77464 61.45625 223.00902Q62.20625 223.3684 62.565624 223.89964Q62.925 224.41527 62.925 225.1184Q62.925 225.8059 62.534374 226.41527Q62.14375 227.00902 61.409374 227.35277Q60.675 227.6809 59.753124 227.6809Q58.58125 227.6809 57.784374 227.35277Q57.003124 227.00902 56.55 226.32152Q56.1125 225.63402 56.096874 224.77464ZM68.40938 226.77464Q67.81563 227.27464 67.26875 227.47777Q66.7375 227.6809 66.1125 227.6809Q65.08125 227.6809 64.53438 227.1809Q63.9875 226.6809 63.9875 225.89964Q63.9875 225.44652 64.19063 225.07152Q64.39375 224.6809 64.7375 224.46214Q65.08125 224.22777 65.50313 224.1184Q65.8 224.02464 66.44063 223.94652Q67.70625 223.8059 68.31563 223.58714Q68.31563 223.3684 68.31563 223.32152Q68.31563 222.66527 68.01875 222.39964Q67.6125 222.0559 66.81563 222.0559Q66.08125 222.0559 65.72188 222.32152Q65.3625 222.57152 65.19063 223.22777L64.15938 223.08714Q64.3 222.4309 64.62813 222.02464Q64.95625 221.6184 65.56563 221.39964Q66.175 221.1809 66.97188 221.1809Q67.76875 221.1809 68.26875 221.3684Q68.76875 221.5559 69.00313 221.83714Q69.2375 222.1184 69.33125 222.5559Q69.37813 222.82152 69.37813 223.52464L69.37813 224.9309Q69.37813 226.39964 69.44063 226.79027Q69.51875 227.1809 69.72188 227.54027L68.6125 227.54027Q68.45625 227.21214 68.40938 226.77464ZM68.31563 224.41527Q67.7375 224.64964 66.59688 224.82152Q65.94063 224.91527 65.675 225.04027Q65.40938 225.14964 65.25313 225.3684Q65.1125 225.58714 65.1125 225.8684Q65.1125 226.29027 65.425 226.57152Q65.75313 226.85277 66.3625 226.85277Q66.97188 226.85277 67.44063 226.58714Q67.925 226.32152 68.14375 225.85277Q68.31563 225.4934 68.31563 224.8059L68.31563 224.41527ZM71.31563 227.54027L71.31563 218.94652L72.37813 218.94652L72.37813 227.54027L71.31563 227.54027ZM78.59688 225.54027L79.69063 225.66527Q79.44063 226.6184 78.7375 227.14964Q78.03438 227.6809 76.95625 227.6809Q75.59688 227.6809 74.78438 226.83714Q73.9875 225.9934 73.9875 224.47777Q73.9875 222.91527 74.8 222.0559Q75.6125 221.1809 76.89375 221.1809Q78.14375 221.1809 78.925 222.02464Q79.72188 222.8684 79.72188 224.41527Q79.72188 224.50902 79.72188 224.69652L75.08125 224.69652Q75.14375 225.72777 75.65938 226.27464Q76.175 226.8059 76.95625 226.8059Q77.53438 226.8059 77.94063 226.50902Q78.3625 226.19652 78.59688 225.54027ZM75.14375 223.83714L78.6125 223.83714Q78.55 223.04027 78.22188 222.64964Q77.70625 222.04027 76.90938 222.04027Q76.175 222.04027 75.675 222.52464Q75.19063 223.00902 75.14375 223.83714Z" fill-rule="nonzero"/><path fill="#9e9e9e" d="M22.425 244.54027L22.425 242.47777L18.70625 242.47777L18.70625 241.50902L22.628124 235.94652L23.4875 235.94652L23.4875 241.50902L24.64375 241.50902L24.64375 242.47777L23.4875 242.47777L23.4875 244.54027L22.425 244.54027ZM22.425 241.50902L22.425 237.64964L19.7375 241.50902L22.425 241.50902ZM26.1125 237.07152L26.1125 236.0559L31.675 236.0559L31.675 236.88402Q30.8625 237.75902 30.05 239.21214Q29.253124 240.64964 28.815624 242.1809Q28.4875 243.25902 28.409374 244.54027L27.315624 244.54027Q27.33125 243.52464 27.70625 242.08714Q28.096874 240.64964 28.8 239.32152Q29.51875 237.9934 30.33125 237.07152L26.1125 237.07152ZM33.64375 244.54027L33.64375 243.33714L34.846874 243.33714L34.846874 244.54027L33.64375 244.54027ZM36.05 242.29027L37.159374 242.19652Q37.284374 243.00902 37.721874 243.41527Q38.175 243.82152 38.815624 243.82152Q39.565624 243.82152 40.096874 243.2434Q40.628124 242.66527 40.628124 241.72777Q40.628124 240.82152 40.1125 240.3059Q39.6125 239.77464 38.784374 239.77464Q38.284374 239.77464 37.8625 240.00902Q37.45625 240.2434 37.221874 240.60277L36.2375 240.47777L37.065624 236.07152L41.346874 236.07152L41.346874 237.07152L37.909374 237.07152L37.45625 239.38402Q38.221874 238.83714 39.065624 238.83714Q40.190624 238.83714 40.95625 239.6184Q41.7375 240.39964 41.7375 241.63402Q41.7375 242.79027 41.065624 243.64964Q40.2375 244.6809 38.815624 244.6809Q37.64375 244.6809 36.89375 244.02464Q36.159374 243.3684 36.05 242.29027ZM43.253124 238.00902Q43.253124 237.08714 43.70625 236.44652Q44.175 235.8059 45.05 235.8059Q45.8625 235.8059 46.39375 236.38402Q46.925 236.96214 46.925 238.07152Q46.925 239.16527 46.378124 239.75902Q45.846874 240.33714 45.065624 240.33714Q44.284374 240.33714 43.76875 239.75902Q43.253124 239.1809 43.253124 238.00902ZM45.08125 236.52464Q44.690624 236.52464 44.425 236.8684Q44.175 237.21214 44.175 238.1184Q44.175 238.94652 44.425 239.29027Q44.690624 239.6184 45.08125 239.6184Q45.4875 239.6184 45.7375 239.27464Q46.003124 238.9309 46.003124 238.04027Q46.003124 237.19652 45.7375 236.8684Q45.471874 236.52464 45.08125 236.52464ZM45.08125 244.85277L49.784374 235.8059L50.64375 235.8059L45.95625 244.85277L45.08125 244.85277ZM48.8 242.52464Q48.8 241.60277 49.253124 240.96214Q49.721874 240.32152 50.6125 240.32152Q51.425 240.32152 51.95625 240.89964Q52.4875 241.46214 52.4875 242.58714Q52.4875 243.6809 51.940624 244.27464Q51.409374 244.85277 50.6125 244.85277Q49.846874 244.85277 49.315624 244.27464Q48.8 243.69652 48.8 242.52464ZM50.64375 241.04027Q50.2375 241.04027 49.971874 241.38402Q49.721874 241.72777 49.721874 242.63402Q49.721874 243.44652 49.9875 243.79027Q50.253124 244.13402 50.64375 244.13402Q51.034374 244.13402 51.3 243.79027Q51.565624 243.44652 51.565624 242.54027Q51.565624 241.71214 51.3 241.38402Q51.034374 241.04027 50.64375 241.04027Z" fill-rule="nonzero"/><path stroke="#757575" stroke-width="1.0" stroke-linecap="butt" d="M18.55 232.04027L127.05 232.04027L148.37956 232.04027" fill-rule="nonzero"/><path fill="#9e9e9e" d="M150.37956 232.04027C150.37956 230.9357 149.48413 230.04027 148.37956 230.04027C147.275 230.04027 146.37956 230.9357 146.37956 232.04027C146.37956 233.14484 147.275 234.04027 148.37956 234.04027C149.48413 234.04027 150.37956 233.14484 150.37956 232.04027" fill-rule="nonzero"/><path fill="#1a1a1a" d="M499.3719 30.160059L499.3719 21.566309L502.34064 21.566309Q503.34064 21.566309 503.8719 21.691309Q504.60626 21.863184 505.1219 22.300684Q505.8094 22.878809 506.1375 23.785059Q506.48126 24.675684 506.48126 25.816309Q506.48126 26.800684 506.2469 27.550684Q506.02814 28.300684 505.66876 28.800684Q505.3094 29.300684 504.8719 29.581934Q504.45 29.863184 503.85626 30.019434Q503.2625 30.160059 502.48126 30.160059L499.3719 30.160059ZM500.5125 29.144434L502.34064 29.144434Q503.2 29.144434 503.6844 28.988184Q504.16876 28.831934 504.45 28.535059Q504.85626 28.144434 505.075 27.456934Q505.3094 26.769434 505.3094 25.800684Q505.3094 24.456934 504.85626 23.738184Q504.41876 23.003809 503.79376 22.753809Q503.325 22.581934 502.325 22.581934L500.5125 22.581934L500.5125 29.144434ZM512.4969 28.160059L513.59064 28.285059Q513.34064 29.238184 512.6375 29.769434Q511.9344 30.300684 510.85626 30.300684Q509.4969 30.300684 508.6844 29.456934Q507.8875 28.613184 507.8875 27.097559Q507.8875 25.535059 508.7 24.675684Q509.5125 23.800684 510.79376 23.800684Q512.04376 23.800684 512.825 24.644434Q513.6219 25.488184 513.6219 27.035059Q513.6219 27.128809 513.6219 27.316309L508.98126 27.316309Q509.04376 28.347559 509.5594 28.894434Q510.075 29.425684 510.85626 29.425684Q511.4344 29.425684 511.84064 29.128809Q512.2625 28.816309 512.4969 28.160059ZM509.04376 26.456934L512.5125 26.456934Q512.45 25.660059 512.1219 25.269434Q511.60626 24.660059 510.8094 24.660059Q510.075 24.660059 509.575 25.144434Q509.09064 25.628809 509.04376 26.456934ZM516.96564 30.160059L514.60626 23.941309L515.71564 23.941309L517.0594 27.660059Q517.2625 28.269434 517.45 28.910059Q517.59064 28.425684 517.84064 27.738184L519.23126 23.941309L520.3094 23.941309L517.95 30.160059L516.96564 30.160059ZM524.4969 28.160059L525.59064 28.285059Q525.34064 29.238184 524.6375 29.769434Q523.9344 30.300684 522.85626 30.300684Q521.4969 30.300684 520.6844 29.456934Q519.8875 28.613184 519.8875 27.097559Q519.8875 25.535059 520.7 24.675684Q521.5125 23.800684 522.79376 23.800684Q524.04376 23.800684 524.825 24.644434Q525.6219 25.488184 525.6219 27.035059Q525.6219 27.128809 525.6219 27.316309L520.98126 27.316309Q521.04376 28.347559 521.5594 28.894434Q522.075 29.425684 522.85626 29.425684Q523.4344 29.425684 523.84064 29.128809Q524.2625 28.816309 524.4969 28.160059ZM521.04376 26.456934L524.5125 26.456934Q524.45 25.660059 524.1219 25.269434Q523.60626 24.660059 522.8094 24.660059Q522.075 24.660059 521.575 25.144434Q521.09064 25.628809 521.04376 26.456934ZM527.21564 30.160059L527.21564 21.566309L528.27814 21.566309L528.27814 30.160059L527.21564 30.160059ZM529.85626 27.050684Q529.85626 25.316309 530.8094 24.488184Q531.60626 23.800684 532.7625 23.800684Q534.04376 23.800684 534.85626 24.644434Q535.6844 25.472559 535.6844 26.956934Q535.6844 28.160059 535.325 28.847559Q534.96564 29.535059 534.2625 29.925684Q533.575 30.300684 532.7625 30.300684Q531.46564 30.300684 530.65314 29.472559Q529.85626 28.628809 529.85626 27.050684ZM530.9344 27.050684Q530.9344 28.238184 531.45 28.831934Q531.98126 29.425684 532.7625 29.425684Q533.5594 29.425684 534.075 28.831934Q534.59064 28.238184 534.59064 27.019434Q534.59064 25.863184 534.0594 25.269434Q533.54376 24.675684 532.7625 24.675684Q531.98126 24.675684 531.45 25.269434Q530.9344 25.847559 530.9344 27.050684ZM537.2469 32.550682L537.2469 23.941309L538.2 23.941309L538.2 24.738184Q538.54376 24.269434 538.96564 24.035059Q539.40314 23.800684 540.0125 23.800684Q540.8094 23.800684 541.41876 24.206934Q542.02814 24.613184 542.325 25.363184Q542.6375 26.113184 542.6375 27.003809Q542.6375 27.956934 542.29376 28.722559Q541.96564 29.488184 541.3094 29.894434Q540.65314 30.300684 539.9344 30.300684Q539.40314 30.300684 538.98126 30.081934Q538.5594 29.847559 538.29376 29.519434L538.29376 32.550682L537.2469 32.550682ZM538.2 27.081934Q538.2 28.285059 538.6844 28.863184Q539.16876 29.425684 539.85626 29.425684Q540.5594 29.425684 541.0594 28.831934Q541.5594 28.238184 541.5594 26.988184Q541.5594 25.800684 541.075 25.222559Q540.59064 24.628809 539.90314 24.628809Q539.23126 24.628809 538.71564 25.253809Q538.2 25.878809 538.2 27.081934ZM544.2469 30.160059L544.2469 23.941309L545.1844 23.941309L545.1844 24.816309Q545.48126 24.347559 545.96564 24.081934Q546.45 23.800684 547.075 23.800684Q547.7625 23.800684 548.2 24.081934Q548.65314 24.363184 548.825 24.878809Q549.575 23.800684 550.7469 23.800684Q551.6844 23.800684 552.16876 24.316309Q552.66876 24.816309 552.66876 25.894434L552.66876 30.160059L551.6219 30.160059L551.6219 26.238184Q551.6219 25.613184 551.5125 25.331934Q551.41876 25.050684 551.15314 24.878809Q550.8875 24.706934 550.5125 24.706934Q549.85626 24.706934 549.41876 25.144434Q548.9969 25.581934 548.9969 26.550684L548.9969 30.160059L547.9344 30.160059L547.9344 26.113184Q547.9344 25.410059 547.66876 25.066309Q547.41876 24.706934 546.84064 24.706934Q546.3875 24.706934 546.0125 24.941309Q545.6375 25.175684 545.46564 25.628809Q545.29376 26.081934 545.29376 26.925684L545.29376 30.160059L544.2469 30.160059ZM559.4969 28.160059L560.59064 28.285059Q560.34064 29.238184 559.6375 29.769434Q558.9344 30.300684 557.85626 30.300684Q556.4969 30.300684 555.6844 29.456934Q554.8875 28.613184 554.8875 27.097559Q554.8875 25.535059 555.7 24.675684Q556.5125 23.800684 557.79376 23.800684Q559.04376 23.800684 559.825 24.644434Q560.6219 25.488184 560.6219 27.035059Q560.6219 27.128809 560.6219 27.316309L555.98126 27.316309Q556.04376 28.347559 556.5594 28.894434Q557.075 29.425684 557.85626 29.425684Q558.4344 29.425684 558.84064 29.128809Q559.2625 28.816309 559.4969 28.160059ZM556.04376 26.456934L559.5125 26.456934Q559.45 25.660059 559.1219 25.269434Q558.60626 24.660059 557.8094 24.660059Q557.075 24.660059 556.575 25.144434Q556.09064 25.628809 556.04376 26.456934ZM562.2469 30.160059L562.2469 23.941309L563.1844 23.941309L563.1844 24.816309Q563.8719 23.800684 565.16876 23.800684Q565.73126 23.800684 566.2 24.003809Q566.6844 24.206934 566.91876 24.535059Q567.15314 24.863184 567.2469 25.300684Q567.29376 25.597559 567.29376 26.331934L567.29376 30.160059L566.2469 30.160059L566.2469 26.378809Q566.2469 25.722559 566.1219 25.410059Q565.9969 25.097559 565.6844 24.910059Q565.3719 24.706934 564.95 24.706934Q564.27814 24.706934 563.77814 25.144434Q563.29376 25.566309 563.29376 26.753809L563.29376 30.160059L562.2469 30.160059ZM571.54376 29.222559L571.7 30.144434Q571.2469 30.238184 570.90314 30.238184Q570.325 30.238184 570.0125 30.066309Q569.7 29.878809 569.5594 29.581934Q569.4344 29.285059 569.4344 28.331934L569.4344 24.753809L568.66876 24.753809L568.66876 23.941309L569.4344 23.941309L569.4344 22.394434L570.48126 21.769434L570.48126 23.941309L571.54376 23.941309L571.54376 24.753809L570.48126 24.753809L570.48126 28.394434Q570.48126 28.847559 570.52814 28.972559Q570.59064 29.097559 570.71564 29.175684Q570.84064 29.253809 571.075 29.253809Q571.2625 29.253809 571.54376 29.222559ZM576.3094 29.394434Q575.71564 29.894434 575.16876 30.097559Q574.6375 30.300684 574.0125 30.300684Q572.98126 30.300684 572.4344 29.800684Q571.8875 29.300684 571.8875 28.519434Q571.8875 28.066309 572.09064 27.691309Q572.29376 27.300684 572.6375 27.081934Q572.98126 26.847559 573.40314 26.738184Q573.7 26.644434 574.34064 26.566309Q575.60626 26.425684 576.21564 26.206934Q576.21564 25.988184 576.21564 25.941309Q576.21564 25.285059 575.91876 25.019434Q575.5125 24.675684 574.71564 24.675684Q573.98126 24.675684 573.6219 24.941309Q573.2625 25.191309 573.09064 25.847559L572.0594 25.706934Q572.2 25.050684 572.52814 24.644434Q572.85626 24.238184 573.46564 24.019434Q574.075 23.800684 574.8719 23.800684Q575.66876 23.800684 576.16876 23.988184Q576.66876 24.175684 576.90314 24.456934Q577.1375 24.738184 577.23126 25.175684Q577.27814 25.441309 577.27814 26.144434L577.27814 27.550684Q577.27814 29.019434 577.34064 29.410059Q577.41876 29.800684 577.6219 30.160059L576.5125 30.160059Q576.35626 29.831934 576.3094 29.394434ZM576.21564 27.035059Q575.6375 27.269434 574.4969 27.441309Q573.84064 27.535059 573.575 27.660059Q573.3094 27.769434 573.15314 27.988184Q573.0125 28.206934 573.0125 28.488184Q573.0125 28.910059 573.325 29.191309Q573.65314 29.472559 574.2625 29.472559Q574.8719 29.472559 575.34064 29.206934Q575.825 28.941309 576.04376 28.472559Q576.21564 28.113184 576.21564 27.425684L576.21564 27.035059ZM579.21564 30.160059L579.21564 21.566309L580.27814 21.566309L580.27814 30.160059L579.21564 30.160059Z" fill-rule="nonzero"/><path fill="#9e9e9e" d="M550.91876 47.160057L549.8719 47.160057L549.8719 40.441307Q549.48126 40.800682 548.85626 41.175682Q548.2469 41.535057 547.7625 41.706932L547.7625 40.691307Q548.6375 40.269432 549.29376 39.691307Q549.96564 39.097557 550.2469 38.535057L550.91876 38.535057L550.91876 47.160057ZM553.95 42.925682Q553.95 41.394432 554.2625 40.472557Q554.575 39.535057 555.1844 39.035057Q555.8094 38.535057 556.7469 38.535057Q557.4344 38.535057 557.95 38.816307Q558.48126 39.097557 558.825 39.628807Q559.16876 40.144432 559.35626 40.894432Q559.54376 41.644432 559.54376 42.925682Q559.54376 44.441307 559.23126 45.363182Q558.9344 46.285057 558.3094 46.800682Q557.7 47.300682 556.7469 47.300682Q555.5125 47.300682 554.79376 46.410057Q553.95 45.347557 553.95 42.925682ZM555.02814 42.925682Q555.02814 45.035057 555.52814 45.738182Q556.02814 46.441307 556.7469 46.441307Q557.48126 46.441307 557.96564 45.738182Q558.46564 45.035057 558.46564 42.925682Q558.46564 40.800682 557.96564 40.113182Q557.48126 39.410057 556.73126 39.410057Q556.0125 39.410057 555.575 40.019432Q555.02814 40.800682 555.02814 42.925682ZM561.54376 47.160057L561.54376 45.956932L562.7469 45.956932L562.7469 47.160057L561.54376 47.160057ZM563.95 42.925682Q563.95 41.394432 564.2625 40.472557Q564.575 39.535057 565.1844 39.035057Q565.8094 38.535057 566.7469 38.535057Q567.4344 38.535057 567.95 38.816307Q568.48126 39.097557 568.825 39.628807Q569.16876 40.144432 569.35626 40.894432Q569.54376 41.644432 569.54376 42.925682Q569.54376 44.441307 569.23126 45.363182Q568.9344 46.285057 568.3094 46.800682Q567.7 47.300682 566.7469 47.300682Q565.5125 47.300682 564.79376 46.410057Q563.95 45.347557 563.95 42.925682ZM565.02814 42.925682Q565.02814 45.035057 565.52814 45.738182Q566.02814 46.441307 566.7469 46.441307Q567.48126 46.441307 567.96564 45.738182Q568.46564 45.035057 568.46564 42.925682Q568.46564 40.800682 567.96564 40.113182Q567.48126 39.410057 566.73126 39.410057Q566.0125 39.410057 565.575 40.019432Q565.02814 40.800682 565.02814 42.925682ZM571.15314 40.628807Q571.15314 39.706932 571.60626 39.066307Q572.075 38.425682 572.95 38.425682Q573.7625 38.425682 574.29376 39.003807Q574.825 39.581932 574.825 40.691307Q574.825 41.785057 574.27814 42.378807Q573.7469 42.956932 572.96564 42.956932Q572.1844 42.956932 571.66876 42.378807Q571.15314 41.800682 571.15314 40.628807ZM572.98126 39.144432Q572.59064 39.144432 572.325 39.488182Q572.075 39.831932 572.075 40.738182Q572.075 41.566307 572.325 41.910057Q572.59064 42.238182 572.98126 42.238182Q573.3875 42.238182 573.6375 41.894432Q573.90314 41.550682 573.90314 40.660057Q573.90314 39.816307 573.6375 39.488182Q573.3719 39.144432 572.98126 39.144432ZM572.98126 47.472557L577.6844 38.425682L578.54376 38.425682L573.85626 47.472557L572.98126 47.472557ZM576.7 45.144432Q576.7 44.222557 577.15314 43.581932Q577.6219 42.941307 578.5125 42.941307Q579.325 42.941307 579.85626 43.519432Q580.3875 44.081932 580.3875 45.206932Q580.3875 46.300682 579.84064 46.894432Q579.3094 47.472557 578.5125 47.472557Q577.7469 47.472557 577.21564 46.894432Q576.7 46.316307 576.7 45.144432ZM578.54376 43.660057Q578.1375 43.660057 577.8719 44.003807Q577.6219 44.347557 577.6219 45.253807Q577.6219 46.066307 577.8875 46.410057Q578.15314 46.753807 578.54376 46.753807Q578.9344 46.753807 579.2 46.410057Q579.46564 46.066307 579.46564 45.160057Q579.46564 44.331932 579.2 44.003807Q578.9344 43.660057 578.54376 43.660057Z" fill-rule="nonzero"/><path stroke="#757575" stroke-width="1.0" stroke-linecap="butt" d="M581.45 34.660057L472.95 34.660057L349.01086 34.660057" fill-rule="nonzero"/><path fill="#9e9e9e" d="M351.01086 34.660057C351.01086 33.55549 350.11545 32.660057 349.01086 32.660057C347.9063 32.660057 347.01086 33.55549 347.01086 34.660057C347.01086 35.76463 347.9063 36.660057 349.01086 36.660057C350.11545 36.660057 351.01086 35.76463 351.01086 34.660057" fill-rule="nonzero"/><path fill="#1a1a1a" d="M480.40314 168.65553L480.40314 160.06178L486.60626 160.06178L486.60626 161.07741L481.54376 161.07741L481.54376 163.70241L486.29376 163.70241L486.29376 164.71803L481.54376 164.71803L481.54376 167.63991L486.8094 167.63991L486.8094 168.65553L480.40314 168.65553ZM487.54376 168.65553L489.8094 165.42116L487.71564 162.43678L489.02814 162.43678L489.98126 163.88991Q490.2469 164.31178 490.41876 164.59303Q490.66876 164.20241 490.8875 163.90553L491.9344 162.43678L493.2 162.43678L491.04376 165.35866L493.35626 168.65553L492.075 168.65553L490.79376 166.71803L490.45 166.20241L488.8094 168.65553L487.54376 168.65553ZM497.3094 166.37428L498.34064 166.51491Q498.16876 167.57741 497.46564 168.18678Q496.7625 168.79616 495.7469 168.79616Q494.46564 168.79616 493.6844 167.96803Q492.91876 167.12428 492.91876 165.56178Q492.91876 164.56178 493.2469 163.81178Q493.59064 163.04616 494.2625 162.67116Q494.95 162.29616 495.7625 162.29616Q496.7625 162.29616 497.40314 162.81178Q498.0594 163.31178 498.2469 164.26491L497.21564 164.42116Q497.075 163.79616 496.7 163.48366Q496.325 163.15553 495.79376 163.15553Q494.9969 163.15553 494.4969 163.73366Q493.9969 164.29616 493.9969 165.53053Q493.9969 166.79616 494.48126 167.35866Q494.96564 167.92116 495.73126 167.92116Q496.35626 167.92116 496.7625 167.54616Q497.1844 167.17116 497.3094 166.37428ZM499.2469 168.65553L499.2469 160.06178L500.29376 160.06178L500.29376 163.13991Q501.02814 162.29616 502.15314 162.29616Q502.85626 162.29616 503.35626 162.57741Q503.8719 162.84303 504.09064 163.32741Q504.3094 163.79616 504.3094 164.71803L504.3094 168.65553L503.2625 168.65553L503.2625 164.71803Q503.2625 163.92116 502.91876 163.56178Q502.575 163.20241 501.95 163.20241Q501.48126 163.20241 501.0594 163.45241Q500.65314 163.68678 500.46564 164.10866Q500.29376 164.51491 500.29376 165.24928L500.29376 168.65553L499.2469 168.65553ZM510.3094 167.88991Q509.71564 168.38991 509.16876 168.59303Q508.6375 168.79616 508.0125 168.79616Q506.98126 168.79616 506.4344 168.29616Q505.8875 167.79616 505.8875 167.01491Q505.8875 166.56178 506.09064 166.18678Q506.29376 165.79616 506.6375 165.57741Q506.98126 165.34303 507.40314 165.23366Q507.7 165.13991 508.34064 165.06178Q509.60626 164.92116 510.21564 164.70241Q510.21564 164.48366 510.21564 164.43678Q510.21564 163.78053 509.91876 163.51491Q509.5125 163.17116 508.71564 163.17116Q507.98126 163.17116 507.6219 163.43678Q507.2625 163.68678 507.09064 164.34303L506.0594 164.20241Q506.2 163.54616 506.52814 163.13991Q506.85626 162.73366 507.46564 162.51491Q508.075 162.29616 508.8719 162.29616Q509.66876 162.29616 510.16876 162.48366Q510.66876 162.67116 510.90314 162.95241Q511.1375 163.23366 511.23126 163.67116Q511.27814 163.93678 511.27814 164.63991L511.27814 166.04616Q511.27814 167.51491 511.34064 167.90553Q511.41876 168.29616 511.6219 168.65553L510.5125 168.65553Q510.35626 168.32741 510.3094 167.88991ZM510.21564 165.53053Q509.6375 165.76491 508.4969 165.93678Q507.84064 166.03053 507.575 166.15553Q507.3094 166.26491 507.15314 166.48366Q507.0125 166.70241 507.0125 166.98366Q507.0125 167.40553 507.325 167.68678Q507.65314 167.96803 508.2625 167.96803Q508.8719 167.96803 509.34064 167.70241Q509.825 167.43678 510.04376 166.96803Q510.21564 166.60866 510.21564 165.92116L510.21564 165.53053ZM513.2469 168.65553L513.2469 162.43678L514.1844 162.43678L514.1844 163.31178Q514.8719 162.29616 516.16876 162.29616Q516.73126 162.29616 517.2 162.49928Q517.6844 162.70241 517.91876 163.03053Q518.15314 163.35866 518.2469 163.79616Q518.29376 164.09303 518.29376 164.82741L518.29376 168.65553L517.2469 168.65553L517.2469 164.87428Q517.2469 164.21803 517.1219 163.90553Q516.9969 163.59303 516.6844 163.40553Q516.3719 163.20241 515.95 163.20241Q515.27814 163.20241 514.77814 163.63991Q514.29376 164.06178 514.29376 165.24928L514.29376 168.65553L513.2469 168.65553ZM520.04376 169.17116L521.075 169.32741Q521.1375 169.79616 521.4344 170.01491Q521.825 170.31178 522.4969 170.31178Q523.23126 170.31178 523.6219 170.01491Q524.02814 169.71803 524.16876 169.20241Q524.2625 168.87428 524.2469 167.84303Q523.5594 168.65553 522.52814 168.65553Q521.2469 168.65553 520.54376 167.73366Q519.84064 166.79616 519.84064 165.51491Q519.84064 164.62428 520.15314 163.87428Q520.48126 163.10866 521.09064 162.70241Q521.7 162.29616 522.52814 162.29616Q523.6375 162.29616 524.35626 163.18678L524.35626 162.43678L525.325 162.43678L525.325 167.81178Q525.325 169.26491 525.02814 169.87428Q524.73126 170.48366 524.09064 170.82741Q523.45 171.18678 522.5125 171.18678Q521.40314 171.18678 520.71564 170.68678Q520.02814 170.18678 520.04376 169.17116ZM520.91876 165.43678Q520.91876 166.65553 521.40314 167.21803Q521.8875 167.78053 522.6219 167.78053Q523.35626 167.78053 523.84064 167.21803Q524.34064 166.65553 524.34064 165.46803Q524.34064 164.32741 523.825 163.74928Q523.325 163.17116 522.60626 163.17116Q521.90314 163.17116 521.40314 163.74928Q520.91876 164.31178 520.91876 165.43678ZM531.4969 166.65553L532.59064 166.78053Q532.34064 167.73366 531.6375 168.26491Q530.9344 168.79616 529.85626 168.79616Q528.4969 168.79616 527.6844 167.95241Q526.8875 167.10866 526.8875 165.59303Q526.8875 164.03053 527.7 163.17116Q528.5125 162.29616 529.79376 162.29616Q531.04376 162.29616 531.825 163.13991Q532.6219 163.98366 532.6219 165.53053Q532.6219 165.62428 532.6219 165.81178L527.98126 165.81178Q528.04376 166.84303 528.5594 167.38991Q529.075 167.92116 529.85626 167.92116Q530.4344 167.92116 530.84064 167.62428Q531.2625 167.31178 531.4969 166.65553ZM528.04376 164.95241L531.5125 164.95241Q531.45 164.15553 531.1219 163.76491Q530.60626 163.15553 529.8094 163.15553Q529.075 163.15553 528.575 163.63991Q528.09064 164.12428 528.04376 164.95241ZM537.325 168.65553L537.325 160.06178L538.46564 160.06178L538.46564 167.63991L542.7 167.63991L542.7 168.65553L537.325 168.65553ZM544.2469 161.28053L544.2469 160.06178L545.3094 160.06178L545.3094 161.28053L544.2469 161.28053ZM544.2469 168.65553L544.2469 162.43678L545.3094 162.43678L545.3094 168.65553L544.2469 168.65553ZM551.21564 171.04616L551.21564 167.99928Q550.96564 168.34303 550.5125 168.57741Q550.075 168.79616 549.575 168.79616Q548.46564 168.79616 547.66876 167.92116Q546.8719 167.03053 546.8719 165.48366Q546.8719 164.54616 547.2 163.81178Q547.52814 163.06178 548.1375 162.68678Q548.7625 162.29616 549.4969 162.29616Q550.65314 162.29616 551.3094 163.26491L551.3094 162.43678L552.2625 162.43678L552.2625 171.04616L551.21564 171.04616ZM547.95 165.53053Q547.95 166.73366 548.45 167.32741Q548.96564 167.92116 549.66876 167.92116Q550.34064 167.92116 550.825 167.35866Q551.3094 166.78053 551.3094 165.62428Q551.3094 164.37428 550.79376 163.74928Q550.29376 163.12428 549.59064 163.12428Q548.91876 163.12428 548.4344 163.71803Q547.95 164.29616 547.95 165.53053ZM558.325 168.65553L558.325 167.73366Q557.59064 168.79616 556.34064 168.79616Q555.79376 168.79616 555.3094 168.59303Q554.84064 168.37428 554.60626 168.06178Q554.3719 167.73366 554.27814 167.26491Q554.21564 166.96803 554.21564 166.28053L554.21564 162.43678L555.27814 162.43678L555.27814 165.88991Q555.27814 166.70241 555.34064 166.99928Q555.4344 167.40553 555.7469 167.65553Q556.075 167.88991 556.5594 167.88991Q557.02814 167.88991 557.4344 167.65553Q557.85626 167.40553 558.02814 166.98366Q558.21564 166.56178 558.21564 165.76491L558.21564 162.43678L559.2625 162.43678L559.2625 168.65553L558.325 168.65553ZM561.2469 161.28053L561.2469 160.06178L562.3094 160.06178L562.3094 161.28053L561.2469 161.28053ZM561.2469 168.65553L561.2469 162.43678L562.3094 162.43678L562.3094 168.65553L561.2469 168.65553ZM568.27814 168.65553L568.27814 167.87428Q567.6844 168.79616 566.54376 168.79616Q565.79376 168.79616 565.16876 168.38991Q564.54376 167.96803 564.2 167.23366Q563.85626 166.49928 563.85626 165.54616Q563.85626 164.62428 564.16876 163.85866Q564.48126 163.09303 565.10626 162.70241Q565.73126 162.29616 566.4969 162.29616Q567.0594 162.29616 567.4969 162.53053Q567.9344 162.76491 568.21564 163.13991L568.21564 160.06178L569.2625 160.06178L569.2625 168.65553L568.27814 168.65553ZM564.95 165.54616Q564.95 166.74928 565.45 167.34303Q565.95 167.92116 566.6375 167.92116Q567.325 167.92116 567.8094 167.35866Q568.29376 166.79616 568.29376 165.63991Q568.29376 164.35866 567.79376 163.76491Q567.3094 163.17116 566.59064 163.17116Q565.8875 163.17116 565.41876 163.74928Q564.95 164.31178 564.95 165.54616ZM571.2469 161.28053L571.2469 160.06178L572.3094 160.06178L572.3094 161.28053L571.2469 161.28053ZM571.2469 168.65553L571.2469 162.43678L572.3094 162.43678L572.3094 168.65553L571.2469 168.65553ZM576.54376 167.71803L576.7 168.63991Q576.2469 168.73366 575.90314 168.73366Q575.325 168.73366 575.0125 168.56178Q574.7 168.37428 574.5594 168.07741Q574.4344 167.78053 574.4344 166.82741L574.4344 163.24928L573.66876 163.24928L573.66876 162.43678L574.4344 162.43678L574.4344 160.88991L575.48126 160.26491L575.48126 162.43678L576.54376 162.43678L576.54376 163.24928L575.48126 163.24928L575.48126 166.88991Q575.48126 167.34303 575.52814 167.46803Q575.59064 167.59303 575.71564 167.67116Q575.84064 167.74928 576.075 167.74928Q576.2625 167.74928 576.54376 167.71803ZM577.2 171.04616L577.075 170.06178Q577.41876 170.15553 577.6844 170.15553Q578.02814 170.15553 578.23126 170.03053Q578.45 169.92116 578.59064 169.71803Q578.6844 169.54616 578.91876 168.92116Q578.9344 168.84303 579.0125 168.67116L576.6375 162.43678L577.77814 162.43678L579.075 166.03053Q579.325 166.71803 579.52814 167.48366Q579.71564 166.74928 579.96564 166.06178L581.29376 162.43678L582.34064 162.43678L579.98126 168.76491Q579.59064 169.78053 579.3875 170.17116Q579.10626 170.70241 578.73126 170.93678Q578.3719 171.18678 577.8719 171.18678Q577.575 171.18678 577.2 171.04616Z" fill-rule="nonzero"/><path fill="#9e9e9e" d="M552.4969 184.63991L552.4969 185.65553L546.8094 185.65553Q546.8094 185.28053 546.9344 184.92116Q547.15314 184.34303 547.6219 183.78053Q548.10626 183.21803 549.0125 182.48366Q550.41876 181.32741 550.90314 180.65553Q551.40314 179.98366 551.40314 179.38991Q551.40314 178.76491 550.95 178.34303Q550.4969 177.90553 549.77814 177.90553Q549.0125 177.90553 548.5594 178.35866Q548.10626 178.81178 548.09064 179.62428L547.0125 179.51491Q547.1219 178.29616 547.84064 177.67116Q548.575 177.03053 549.8094 177.03053Q551.04376 177.03053 551.7625 177.71803Q552.48126 178.40553 552.48126 179.42116Q552.48126 179.93678 552.2625 180.43678Q552.0594 180.92116 551.5594 181.48366Q551.075 182.03053 549.95 182.98366Q548.9969 183.78053 548.71564 184.07741Q548.45 184.35866 548.27814 184.63991L552.4969 184.63991ZM554.0125 178.18678L554.0125 177.17116L559.575 177.17116L559.575 177.99928Q558.7625 178.87428 557.95 180.32741Q557.15314 181.76491 556.71564 183.29616Q556.3875 184.37428 556.3094 185.65553L555.21564 185.65553Q555.23126 184.63991 555.60626 183.20241Q555.9969 181.76491 556.7 180.43678Q557.41876 179.10866 558.23126 178.18678L554.0125 178.18678ZM561.54376 185.65553L561.54376 184.45241L562.7469 184.45241L562.7469 185.65553L561.54376 185.65553ZM563.95 183.40553L565.0594 183.31178Q565.1844 184.12428 565.6219 184.53053Q566.075 184.93678 566.71564 184.93678Q567.46564 184.93678 567.9969 184.35866Q568.52814 183.78053 568.52814 182.84303Q568.52814 181.93678 568.0125 181.42116Q567.5125 180.88991 566.6844 180.88991Q566.1844 180.88991 565.7625 181.12428Q565.35626 181.35866 565.1219 181.71803L564.1375 181.59303L564.96564 177.18678L569.2469 177.18678L569.2469 178.18678L565.8094 178.18678L565.35626 180.49928Q566.1219 179.95241 566.96564 179.95241Q568.09064 179.95241 568.85626 180.73366Q569.6375 181.51491 569.6375 182.74928Q569.6375 183.90553 568.96564 184.76491Q568.1375 185.79616 566.71564 185.79616Q565.54376 185.79616 564.79376 185.13991Q564.0594 184.48366 563.95 183.40553ZM571.15314 179.12428Q571.15314 178.20241 571.60626 177.56178Q572.075 176.92116 572.95 176.92116Q573.7625 176.92116 574.29376 177.49928Q574.825 178.07741 574.825 179.18678Q574.825 180.28053 574.27814 180.87428Q573.7469 181.45241 572.96564 181.45241Q572.1844 181.45241 571.66876 180.87428Q571.15314 180.29616 571.15314 179.12428ZM572.98126 177.63991Q572.59064 177.63991 572.325 177.98366Q572.075 178.32741 572.075 179.23366Q572.075 180.06178 572.325 180.40553Q572.59064 180.73366 572.98126 180.73366Q573.3875 180.73366 573.6375 180.38991Q573.90314 180.04616 573.90314 179.15553Q573.90314 178.31178 573.6375 177.98366Q573.3719 177.63991 572.98126 177.63991ZM572.98126 185.96803L577.6844 176.92116L578.54376 176.92116L573.85626 185.96803L572.98126 185.96803ZM576.7 183.63991Q576.7 182.71803 577.15314 182.07741Q577.6219 181.43678 578.5125 181.43678Q579.325 181.43678 579.85626 182.01491Q580.3875 182.57741 580.3875 183.70241Q580.3875 184.79616 579.84064 185.38991Q579.3094 185.96803 578.5125 185.96803Q577.7469 185.96803 577.21564 185.38991Q576.7 184.81178 576.7 183.63991ZM578.54376 182.15553Q578.1375 182.15553 577.8719 182.49928Q577.6219 182.84303 577.6219 183.74928Q577.6219 184.56178 577.8875 184.90553Q578.15314 185.24928 578.54376 185.24928Q578.9344 185.24928 579.2 184.90553Q579.46564 184.56178 579.46564 183.65553Q579.46564 182.82741 579.2 182.49928Q578.9344 182.15553 578.54376 182.15553Z" fill-rule="nonzero"/><path stroke="#757575" stroke-width="1.0" stroke-linecap="butt" d="M581.45 173.15553L472.95 173.15553L458.12137 173.15553" fill-rule="nonzero"/><path fill="#9e9e9e" d="M460.12137 173.15553C460.12137 172.05096 459.22595 171.15553 458.12137 171.15553C457.01678 171.15553 456.12137 172.05096 456.12137 173.15553C456.12137 174.2601 457.01678 175.15553 458.12137 175.15553C459.22595 175.15553 460.12137 174.2601 460.12137 173.15553" fill-rule="nonzero"/><path fill="#1a1a1a" d="M534.4344 270.45L537.73126 261.85626L538.95 261.85626L542.46564 270.45L541.1844 270.45L540.16876 267.84064L536.59064 267.84064L535.6375 270.45L534.4344 270.45ZM536.91876 266.91876L539.825 266.91876L538.9344 264.54376Q538.5125 263.46564 538.325 262.7625Q538.15314 263.59064 537.85626 264.40314L536.91876 266.91876ZM546.27814 270.45L546.27814 269.66876Q545.6844 270.59064 544.54376 270.59064Q543.79376 270.59064 543.16876 270.1844Q542.54376 269.7625 542.2 269.02814Q541.85626 268.29376 541.85626 267.34064Q541.85626 266.41876 542.16876 265.65314Q542.48126 264.8875 543.10626 264.4969Q543.73126 264.09064 544.4969 264.09064Q545.0594 264.09064 545.4969 264.325Q545.9344 264.5594 546.21564 264.9344L546.21564 261.85626L547.2625 261.85626L547.2625 270.45L546.27814 270.45ZM542.95 267.34064Q542.95 268.54376 543.45 269.1375Q543.95 269.71564 544.6375 269.71564Q545.325 269.71564 545.8094 269.15314Q546.29376 268.59064 546.29376 267.4344Q546.29376 266.15314 545.79376 265.5594Q545.3094 264.96564 544.59064 264.96564Q543.8875 264.96564 543.41876 265.54376Q542.95 266.10626 542.95 267.34064ZM550.96564 270.45L548.60626 264.23126L549.71564 264.23126L551.0594 267.95Q551.2625 268.5594 551.45 269.2Q551.59064 268.71564 551.84064 268.02814L553.23126 264.23126L554.3094 264.23126L551.95 270.45L550.96564 270.45ZM554.2469 263.075L554.2469 261.85626L555.3094 261.85626L555.3094 263.075L554.2469 263.075ZM554.2469 270.45L554.2469 264.23126L555.3094 264.23126L555.3094 270.45L554.2469 270.45ZM556.825 268.59064L557.85626 268.4344Q557.95 269.0594 558.34064 269.3875Q558.7469 269.71564 559.48126 269.71564Q560.2 269.71564 560.54376 269.4344Q560.90314 269.1375 560.90314 268.73126Q560.90314 268.3719 560.59064 268.16876Q560.3719 268.02814 559.5125 267.8094Q558.35626 267.5125 557.90314 267.3094Q557.46564 267.09064 557.23126 266.71564Q556.9969 266.34064 556.9969 265.8719Q556.9969 265.46564 557.1844 265.10626Q557.3719 264.7469 557.7 264.5125Q557.95 264.34064 558.3719 264.21564Q558.79376 264.09064 559.29376 264.09064Q560.0125 264.09064 560.5594 264.3094Q561.1219 264.5125 561.3875 264.8719Q561.65314 265.23126 561.7469 265.825L560.71564 265.96564Q560.65314 265.4969 560.3094 265.23126Q559.98126 264.95 559.35626 264.95Q558.6375 264.95 558.325 265.2Q558.0125 265.4344 558.0125 265.7625Q558.0125 265.96564 558.1375 266.1219Q558.27814 266.29376 558.54376 266.40314Q558.7 266.46564 559.48126 266.66876Q560.60626 266.98126 561.04376 267.16876Q561.48126 267.35626 561.73126 267.71564Q561.98126 268.075 561.98126 268.6219Q561.98126 269.15314 561.66876 269.6219Q561.3719 270.075 560.79376 270.34064Q560.21564 270.59064 559.48126 270.59064Q558.2625 270.59064 557.6219 270.09064Q556.9969 269.575 556.825 268.59064ZM563.85626 267.34064Q563.85626 265.60626 564.8094 264.77814Q565.60626 264.09064 566.7625 264.09064Q568.04376 264.09064 568.85626 264.9344Q569.6844 265.7625 569.6844 267.2469Q569.6844 268.45 569.325 269.1375Q568.96564 269.825 568.2625 270.21564Q567.575 270.59064 566.7625 270.59064Q565.46564 270.59064 564.65314 269.7625Q563.85626 268.91876 563.85626 267.34064ZM564.9344 267.34064Q564.9344 268.52814 565.45 269.1219Q565.98126 269.71564 566.7625 269.71564Q567.5594 269.71564 568.075 269.1219Q568.59064 268.52814 568.59064 267.3094Q568.59064 266.15314 568.0594 265.5594Q567.54376 264.96564 566.7625 264.96564Q565.98126 264.96564 565.45 265.5594Q564.9344 266.1375 564.9344 267.34064ZM571.23126 270.45L571.23126 264.23126L572.1844 264.23126L572.1844 265.16876Q572.54376 264.5125 572.84064 264.3094Q573.15314 264.09064 573.52814 264.09064Q574.0594 264.09064 574.60626 264.41876L574.2469 265.40314Q573.85626 265.16876 573.48126 265.16876Q573.1219 265.16876 572.84064 265.3875Q572.575 265.59064 572.46564 265.96564Q572.27814 266.52814 572.27814 267.1844L572.27814 270.45L571.23126 270.45ZM574.825 268.59064L575.85626 268.4344Q575.95 269.0594 576.34064 269.3875Q576.7469 269.71564 577.48126 269.71564Q578.2 269.71564 578.54376 269.4344Q578.90314 269.1375 578.90314 268.73126Q578.90314 268.3719 578.59064 268.16876Q578.3719 268.02814 577.5125 267.8094Q576.35626 267.5125 575.90314 267.3094Q575.46564 267.09064 575.23126 266.71564Q574.9969 266.34064 574.9969 265.8719Q574.9969 265.46564 575.1844 265.10626Q575.3719 264.7469 575.7 264.5125Q575.95 264.34064 576.3719 264.21564Q576.79376 264.09064 577.29376 264.09064Q578.0125 264.09064 578.5594 264.3094Q579.1219 264.5125 579.3875 264.8719Q579.65314 265.23126 579.7469 265.825L578.71564 265.96564Q578.65314 265.4969 578.3094 265.23126Q577.98126 264.95 577.35626 264.95Q576.6375 264.95 576.325 265.2Q576.0125 265.4344 576.0125 265.7625Q576.0125 265.96564 576.1375 266.1219Q576.27814 266.29376 576.54376 266.40314Q576.7 266.46564 577.48126 266.66876Q578.60626 266.98126 579.04376 267.16876Q579.48126 267.35626 579.73126 267.71564Q579.98126 268.075 579.98126 268.6219Q579.98126 269.15314 579.66876 269.6219Q579.3719 270.075 578.79376 270.34064Q578.21564 270.59064 577.48126 270.59064Q576.2625 270.59064 575.6219 270.09064Q574.9969 269.575 574.825 268.59064Z" fill-rule="nonzero"/><path fill="#9e9e9e" d="M559.4969 286.4344L559.4969 287.45L553.8094 287.45Q553.8094 287.075 553.9344 286.71564Q554.15314 286.1375 554.6219 285.575Q555.10626 285.0125 556.0125 284.27814Q557.41876 283.1219 557.90314 282.45Q558.40314 281.77814 558.40314 281.1844Q558.40314 280.5594 557.95 280.1375Q557.4969 279.7 556.77814 279.7Q556.0125 279.7 555.5594 280.15314Q555.10626 280.60626 555.09064 281.41876L554.0125 281.3094Q554.1219 280.09064 554.84064 279.46564Q555.575 278.825 556.8094 278.825Q558.04376 278.825 558.7625 279.5125Q559.48126 280.2 559.48126 281.21564Q559.48126 281.73126 559.2625 282.23126Q559.0594 282.71564 558.5594 283.27814Q558.075 283.825 556.95 284.77814Q555.9969 285.575 555.71564 285.8719Q555.45 286.15314 555.27814 286.4344L559.4969 286.4344ZM561.54376 287.45L561.54376 286.2469L562.7469 286.2469L562.7469 287.45L561.54376 287.45ZM563.95 283.21564Q563.95 281.6844 564.2625 280.7625Q564.575 279.825 565.1844 279.325Q565.8094 278.825 566.7469 278.825Q567.4344 278.825 567.95 279.10626Q568.48126 279.3875 568.825 279.91876Q569.16876 280.4344 569.35626 281.1844Q569.54376 281.9344 569.54376 283.21564Q569.54376 284.73126 569.23126 285.65314Q568.9344 286.575 568.3094 287.09064Q567.7 287.59064 566.7469 287.59064Q565.5125 287.59064 564.79376 286.7Q563.95 285.6375 563.95 283.21564ZM565.02814 283.21564Q565.02814 285.325 565.52814 286.02814Q566.02814 286.73126 566.7469 286.73126Q567.48126 286.73126 567.96564 286.02814Q568.46564 285.325 568.46564 283.21564Q568.46564 281.09064 567.96564 280.40314Q567.48126 279.7 566.73126 279.7Q566.0125 279.7 565.575 280.3094Q565.02814 281.09064 565.02814 283.21564ZM571.15314 280.91876Q571.15314 279.9969 571.60626 279.35626Q572.075 278.71564 572.95 278.71564Q573.7625 278.71564 574.29376 279.29376Q574.825 279.8719 574.825 280.98126Q574.825 282.075 574.27814 282.66876Q573.7469 283.2469 572.96564 283.2469Q572.1844 283.2469 571.66876 282.66876Q571.15314 282.09064 571.15314 280.91876ZM572.98126 279.4344Q572.59064 279.4344 572.325 279.77814Q572.075 280.1219 572.075 281.02814Q572.075 281.85626 572.325 282.2Q572.59064 282.52814 572.98126 282.52814Q573.3875 282.52814 573.6375 282.1844Q573.90314 281.84064 573.90314 280.95Q573.90314 280.10626 573.6375 279.77814Q573.3719 279.4344 572.98126 279.4344ZM572.98126 287.7625L577.6844 278.71564L578.54376 278.71564L573.85626 287.7625L572.98126 287.7625ZM576.7 285.4344Q576.7 284.5125 577.15314 283.8719Q577.6219 283.23126 578.5125 283.23126Q579.325 283.23126 579.85626 283.8094Q580.3875 284.3719 580.3875 285.4969Q580.3875 286.59064 579.84064 287.1844Q579.3094 287.7625 578.5125 287.7625Q577.7469 287.7625 577.21564 287.1844Q576.7 286.60626 576.7 285.4344ZM578.54376 283.95Q578.1375 283.95 577.8719 284.29376Q577.6219 284.6375 577.6219 285.54376Q577.6219 286.35626 577.8875 286.7Q578.15314 287.04376 578.54376 287.04376Q578.9344 287.04376 579.2 286.7Q579.46564 286.35626 579.46564 285.45Q579.46564 284.6219 579.2 284.29376Q578.9344 283.95 578.54376 283.95Z" fill-rule="nonzero"/><path stroke="#757575" stroke-width="1.0" stroke-linecap="butt" d="M581.45 274.95L472.95 274.95L404.73615 304.6012" fill-rule="nonzero"/><path fill="#9e9e9e" d="M406.73615 304.6012C406.73615 303.49664 405.8407 302.6012 404.73615 302.6012C403.63156 302.6012 402.73615 303.49664 402.73615 304.6012C402.73615 305.70578 403.63156 306.6012 404.73615 306.6012C405.8407 306.6012 406.73615 305.70578 406.73615 304.6012" fill-rule="nonzero"/><path fill="#1a1a1a" d="M501.40314 298.075L501.40314 297.075L505.02814 297.0594L505.02814 300.2469Q504.2 300.91876 503.3094 301.2625Q502.41876 301.59064 501.48126 301.59064Q500.21564 301.59064 499.16876 301.0594Q498.1375 300.5125 497.60626 299.4969Q497.09064 298.46564 497.09064 297.2Q497.09064 295.9344 497.60626 294.85626Q498.1375 293.7625 499.1219 293.2469Q500.10626 292.71564 501.3875 292.71564Q502.325 292.71564 503.075 293.0125Q503.825 293.3094 504.2469 293.85626Q504.6844 294.3875 504.90314 295.2625L503.8875 295.54376Q503.6844 294.8875 503.3875 294.5125Q503.10626 294.1375 502.575 293.91876Q502.04376 293.6844 501.40314 293.6844Q500.6219 293.6844 500.04376 293.91876Q499.48126 294.15314 499.1219 294.54376Q498.77814 294.9344 498.59064 295.40314Q498.2625 296.2 498.2625 297.1219Q498.2625 298.27814 498.65314 299.0594Q499.0594 299.825 499.8094 300.2Q500.5594 300.575 501.41876 300.575Q502.15314 300.575 502.85626 300.29376Q503.5594 299.9969 503.91876 299.6844L503.91876 298.075L501.40314 298.075ZM506.21564 301.45L506.21564 292.85626L507.27814 292.85626L507.27814 301.45L506.21564 301.45ZM508.85626 298.34064Q508.85626 296.60626 509.8094 295.77814Q510.60626 295.09064 511.7625 295.09064Q513.04376 295.09064 513.85626 295.9344Q514.6844 296.7625 514.6844 298.2469Q514.6844 299.45 514.325 300.1375Q513.96564 300.825 513.2625 301.21564Q512.575 301.59064 511.7625 301.59064Q510.46564 301.59064 509.65314 300.7625Q508.85626 299.91876 508.85626 298.34064ZM509.9344 298.34064Q509.9344 299.52814 510.45 300.1219Q510.98126 300.71564 511.7625 300.71564Q512.5594 300.71564 513.075 300.1219Q513.59064 299.52814 513.59064 298.3094Q513.59064 297.15314 513.0594 296.5594Q512.54376 295.96564 511.7625 295.96564Q510.98126 295.96564 510.45 296.5594Q509.9344 297.1375 509.9344 298.34064ZM517.21564 301.45L516.23126 301.45L516.23126 292.85626L517.29376 292.85626L517.29376 295.91876Q517.96564 295.09064 518.9969 295.09064Q519.575 295.09064 520.075 295.325Q520.59064 295.54376 520.91876 295.96564Q521.2625 296.3875 521.45 296.98126Q521.6375 297.575 521.6375 298.2469Q521.6375 299.84064 520.84064 300.71564Q520.04376 301.59064 518.95 301.59064Q517.84064 301.59064 517.21564 300.66876L517.21564 301.45ZM517.2 298.29376Q517.2 299.40314 517.5125 299.90314Q518.0125 300.71564 518.85626 300.71564Q519.54376 300.71564 520.04376 300.1219Q520.5594 299.52814 520.5594 298.325Q520.5594 297.10626 520.075 296.52814Q519.59064 295.95 518.90314 295.95Q518.21564 295.95 517.7 296.5594Q517.2 297.15314 517.2 298.29376ZM527.3094 300.6844Q526.71564 301.1844 526.16876 301.3875Q525.6375 301.59064 525.0125 301.59064Q523.98126 301.59064 523.4344 301.09064Q522.8875 300.59064 522.8875 299.8094Q522.8875 299.35626 523.09064 298.98126Q523.29376 298.59064 523.6375 298.3719Q523.98126 298.1375 524.40314 298.02814Q524.7 297.9344 525.34064 297.85626Q526.60626 297.71564 527.21564 297.4969Q527.21564 297.27814 527.21564 297.23126Q527.21564 296.575 526.91876 296.3094Q526.5125 295.96564 525.71564 295.96564Q524.98126 295.96564 524.6219 296.23126Q524.2625 296.48126 524.09064 297.1375L523.0594 296.9969Q523.2 296.34064 523.52814 295.9344Q523.85626 295.52814 524.46564 295.3094Q525.075 295.09064 525.8719 295.09064Q526.66876 295.09064 527.16876 295.27814Q527.66876 295.46564 527.90314 295.7469Q528.1375 296.02814 528.23126 296.46564Q528.27814 296.73126 528.27814 297.4344L528.27814 298.84064Q528.27814 300.3094 528.34064 300.7Q528.41876 301.09064 528.6219 301.45L527.5125 301.45Q527.35626 301.1219 527.3094 300.6844ZM527.21564 298.325Q526.6375 298.5594 525.4969 298.73126Q524.84064 298.825 524.575 298.95Q524.3094 299.0594 524.15314 299.27814Q524.0125 299.4969 524.0125 299.77814Q524.0125 300.2 524.325 300.48126Q524.65314 300.7625 525.2625 300.7625Q525.8719 300.7625 526.34064 300.4969Q526.825 300.23126 527.04376 299.7625Q527.21564 299.40314 527.21564 298.71564L527.21564 298.325ZM530.21564 301.45L530.21564 292.85626L531.27814 292.85626L531.27814 301.45L530.21564 301.45ZM536.325 301.45L536.325 292.85626L537.46564 292.85626L537.46564 300.4344L541.7 300.4344L541.7 301.45L536.325 301.45ZM547.4969 299.45L548.59064 299.575Q548.34064 300.52814 547.6375 301.0594Q546.9344 301.59064 545.85626 301.59064Q544.4969 301.59064 543.6844 300.7469Q542.8875 299.90314 542.8875 298.3875Q542.8875 296.825 543.7 295.96564Q544.5125 295.09064 545.79376 295.09064Q547.04376 295.09064 547.825 295.9344Q548.6219 296.77814 548.6219 298.325Q548.6219 298.41876 548.6219 298.60626L543.98126 298.60626Q544.04376 299.6375 544.5594 300.1844Q545.075 300.71564 545.85626 300.71564Q546.4344 300.71564 546.84064 300.41876Q547.2625 300.10626 547.4969 299.45ZM544.04376 297.7469L547.5125 297.7469Q547.45 296.95 547.1219 296.5594Q546.60626 295.95 545.8094 295.95Q545.075 295.95 544.575 296.4344Q544.09064 296.91876 544.04376 297.7469ZM554.3094 300.6844Q553.71564 301.1844 553.16876 301.3875Q552.6375 301.59064 552.0125 301.59064Q550.98126 301.59064 550.4344 301.09064Q549.8875 300.59064 549.8875 299.8094Q549.8875 299.35626 550.09064 298.98126Q550.29376 298.59064 550.6375 298.3719Q550.98126 298.1375 551.40314 298.02814Q551.7 297.9344 552.34064 297.85626Q553.60626 297.71564 554.21564 297.4969Q554.21564 297.27814 554.21564 297.23126Q554.21564 296.575 553.91876 296.3094Q553.5125 295.96564 552.71564 295.96564Q551.98126 295.96564 551.6219 296.23126Q551.2625 296.48126 551.09064 297.1375L550.0594 296.9969Q550.2 296.34064 550.52814 295.9344Q550.85626 295.52814 551.46564 295.3094Q552.075 295.09064 552.8719 295.09064Q553.66876 295.09064 554.16876 295.27814Q554.66876 295.46564 554.90314 295.7469Q555.1375 296.02814 555.23126 296.46564Q555.27814 296.73126 555.27814 297.4344L555.27814 298.84064Q555.27814 300.3094 555.34064 300.7Q555.41876 301.09064 555.6219 301.45L554.5125 301.45Q554.35626 301.1219 554.3094 300.6844ZM554.21564 298.325Q553.6375 298.5594 552.4969 298.73126Q551.84064 298.825 551.575 298.95Q551.3094 299.0594 551.15314 299.27814Q551.0125 299.4969 551.0125 299.77814Q551.0125 300.2 551.325 300.48126Q551.65314 300.7625 552.2625 300.7625Q552.8719 300.7625 553.34064 300.4969Q553.825 300.23126 554.04376 299.7625Q554.21564 299.40314 554.21564 298.71564L554.21564 298.325ZM561.27814 301.45L561.27814 300.66876Q560.6844 301.59064 559.54376 301.59064Q558.79376 301.59064 558.16876 301.1844Q557.54376 300.7625 557.2 300.02814Q556.85626 299.29376 556.85626 298.34064Q556.85626 297.41876 557.16876 296.65314Q557.48126 295.8875 558.10626 295.4969Q558.73126 295.09064 559.4969 295.09064Q560.0594 295.09064 560.4969 295.325Q560.9344 295.5594 561.21564 295.9344L561.21564 292.85626L562.2625 292.85626L562.2625 301.45L561.27814 301.45ZM557.95 298.34064Q557.95 299.54376 558.45 300.1375Q558.95 300.71564 559.6375 300.71564Q560.325 300.71564 560.8094 300.15314Q561.29376 299.59064 561.29376 298.4344Q561.29376 297.15314 560.79376 296.5594Q560.3094 295.96564 559.59064 295.96564Q558.8875 295.96564 558.41876 296.54376Q557.95 297.10626 557.95 298.34064ZM568.4969 299.45L569.59064 299.575Q569.34064 300.52814 568.6375 301.0594Q567.9344 301.59064 566.85626 301.59064Q565.4969 301.59064 564.6844 300.7469Q563.8875 299.90314 563.8875 298.3875Q563.8875 296.825 564.7 295.96564Q565.5125 295.09064 566.79376 295.09064Q568.04376 295.09064 568.825 295.9344Q569.6219 296.77814 569.6219 298.325Q569.6219 298.41876 569.6219 298.60626L564.98126 298.60626Q565.04376 299.6375 565.5594 300.1844Q566.075 300.71564 566.85626 300.71564Q567.4344 300.71564 567.84064 300.41876Q568.2625 300.10626 568.4969 299.45ZM565.04376 297.7469L568.5125 297.7469Q568.45 296.95 568.1219 296.5594Q567.60626 295.95 566.8094 295.95Q566.075 295.95 565.575 296.4344Q565.09064 296.91876 565.04376 297.7469ZM571.23126 301.45L571.23126 295.23126L572.1844 295.23126L572.1844 296.16876Q572.54376 295.5125 572.84064 295.3094Q573.15314 295.09064 573.52814 295.09064Q574.0594 295.09064 574.60626 295.41876L574.2469 296.40314Q573.85626 296.16876 573.48126 296.16876Q573.1219 296.16876 572.84064 296.3875Q572.575 296.59064 572.46564 296.96564Q572.27814 297.52814 572.27814 298.1844L572.27814 301.45L571.23126 301.45ZM574.825 299.59064L575.85626 299.4344Q575.95 300.0594 576.34064 300.3875Q576.7469 300.71564 577.48126 300.71564Q578.2 300.71564 578.54376 300.4344Q578.90314 300.1375 578.90314 299.73126Q578.90314 299.3719 578.59064 299.16876Q578.3719 299.02814 577.5125 298.8094Q576.35626 298.5125 575.90314 298.3094Q575.46564 298.09064 575.23126 297.71564Q574.9969 297.34064 574.9969 296.8719Q574.9969 296.46564 575.1844 296.10626Q575.3719 295.7469 575.7 295.5125Q575.95 295.34064 576.3719 295.21564Q576.79376 295.09064 577.29376 295.09064Q578.0125 295.09064 578.5594 295.3094Q579.1219 295.5125 579.3875 295.8719Q579.65314 296.23126 579.7469 296.825L578.71564 296.96564Q578.65314 296.4969 578.3094 296.23126Q577.98126 295.95 577.35626 295.95Q576.6375 295.95 576.325 296.2Q576.0125 296.4344 576.0125 296.7625Q576.0125 296.96564 576.1375 297.1219Q576.27814 297.29376 576.54376 297.40314Q576.7 297.46564 577.48126 297.66876Q578.60626 297.98126 579.04376 298.16876Q579.48126 298.35626 579.73126 298.71564Q579.98126 299.075 579.98126 299.6219Q579.98126 300.15314 579.66876 300.6219Q579.3719 301.075 578.79376 301.34064Q578.21564 301.59064 577.48126 301.59064Q576.2625 301.59064 575.6219 301.09064Q574.9969 300.575 574.825 299.59064Z" fill-rule="nonzero"/><path fill="#9e9e9e" d="M559.4969 317.4344L559.4969 318.45L553.8094 318.45Q553.8094 318.075 553.9344 317.71564Q554.15314 317.1375 554.6219 316.575Q555.10626 316.0125 556.0125 315.27814Q557.41876 314.1219 557.90314 313.45Q558.40314 312.77814 558.40314 312.1844Q558.40314 311.5594 557.95 311.1375Q557.4969 310.7 556.77814 310.7Q556.0125 310.7 555.5594 311.15314Q555.10626 311.60626 555.09064 312.41876L554.0125 312.3094Q554.1219 311.09064 554.84064 310.46564Q555.575 309.825 556.8094 309.825Q558.04376 309.825 558.7625 310.5125Q559.48126 311.2 559.48126 312.21564Q559.48126 312.73126 559.2625 313.23126Q559.0594 313.71564 558.5594 314.27814Q558.075 314.825 556.95 315.77814Q555.9969 316.575 555.71564 316.8719Q555.45 317.15314 555.27814 317.4344L559.4969 317.4344ZM561.54376 318.45L561.54376 317.2469L562.7469 317.2469L562.7469 318.45L561.54376 318.45ZM563.95 314.21564Q563.95 312.6844 564.2625 311.7625Q564.575 310.825 565.1844 310.325Q565.8094 309.825 566.7469 309.825Q567.4344 309.825 567.95 310.10626Q568.48126 310.3875 568.825 310.91876Q569.16876 311.4344 569.35626 312.1844Q569.54376 312.9344 569.54376 314.21564Q569.54376 315.73126 569.23126 316.65314Q568.9344 317.575 568.3094 318.09064Q567.7 318.59064 566.7469 318.59064Q565.5125 318.59064 564.79376 317.7Q563.95 316.6375 563.95 314.21564ZM565.02814 314.21564Q565.02814 316.325 565.52814 317.02814Q566.02814 317.73126 566.7469 317.73126Q567.48126 317.73126 567.96564 317.02814Q568.46564 316.325 568.46564 314.21564Q568.46564 312.09064 567.96564 311.40314Q567.48126 310.7 566.73126 310.7Q566.0125 310.7 565.575 311.3094Q565.02814 312.09064 565.02814 314.21564ZM571.15314 311.91876Q571.15314 310.9969 571.60626 310.35626Q572.075 309.71564 572.95 309.71564Q573.7625 309.71564 574.29376 310.29376Q574.825 310.8719 574.825 311.98126Q574.825 313.075 574.27814 313.66876Q573.7469 314.2469 572.96564 314.2469Q572.1844 314.2469 571.66876 313.66876Q571.15314 313.09064 571.15314 311.91876ZM572.98126 310.4344Q572.59064 310.4344 572.325 310.77814Q572.075 311.1219 572.075 312.02814Q572.075 312.85626 572.325 313.2Q572.59064 313.52814 572.98126 313.52814Q573.3875 313.52814 573.6375 313.1844Q573.90314 312.84064 573.90314 311.95Q573.90314 311.10626 573.6375 310.77814Q573.3719 310.4344 572.98126 310.4344ZM572.98126 318.7625L577.6844 309.71564L578.54376 309.71564L573.85626 318.7625L572.98126 318.7625ZM576.7 316.4344Q576.7 315.5125 577.15314 314.8719Q577.6219 314.23126 578.5125 314.23126Q579.325 314.23126 579.85626 314.8094Q580.3875 315.3719 580.3875 316.4969Q580.3875 317.59064 579.84064 318.1844Q579.3094 318.7625 578.5125 318.7625Q577.7469 318.7625 577.21564 318.1844Q576.7 317.60626 576.7 316.4344ZM578.54376 314.95Q578.1375 314.95 577.8719 315.29376Q577.6219 315.6375 577.6219 316.54376Q577.6219 317.35626 577.8875 317.7Q578.15314 318.04376 578.54376 318.04376Q578.9344 318.04376 579.2 317.7Q579.46564 317.35626 579.46564 316.45Q579.46564 315.6219 579.2 315.29376Q578.9344 314.95 578.54376 314.95Z" fill-rule="nonzero"/><path stroke="#757575" stroke-width="1.0" stroke-linecap="butt" d="M581.45 305.95L472.95 305.95L388.9829 316.78897" fill-rule="nonzero"/><path fill="#9e9e9e" d="M390.9829 316.78897C390.9829 315.6844 390.0875 314.78897 388.9829 314.78897C387.87836 314.78897 386.9829 315.6844 386.9829 316.78897C386.9829 317.89352 387.87836 318.78897 388.9829 318.78897C390.0875 318.78897 390.9829 317.89352 390.9829 316.78897" fill-rule="nonzero"/><path fill="#1a1a1a" d="M517.3719 332.45L517.3719 323.85626L520.6219 323.85626Q521.46564 323.85626 521.91876 323.9344Q522.5594 324.04376 522.98126 324.34064Q523.41876 324.6375 523.66876 325.16876Q523.9344 325.7 523.9344 326.34064Q523.9344 327.4344 523.23126 328.2Q522.54376 328.95 520.71564 328.95L518.5125 328.95L518.5125 332.45L517.3719 332.45ZM518.5125 327.95L520.73126 327.95Q521.84064 327.95 522.29376 327.54376Q522.7625 327.1219 522.7625 326.3719Q522.7625 325.84064 522.48126 325.46564Q522.21564 325.075 521.77814 324.95Q521.48126 324.8719 520.71564 324.8719L518.5125 324.8719L518.5125 327.95ZM525.23126 332.45L525.23126 326.23126L526.1844 326.23126L526.1844 327.16876Q526.54376 326.5125 526.84064 326.3094Q527.15314 326.09064 527.52814 326.09064Q528.0594 326.09064 528.60626 326.41876L528.2469 327.40314Q527.85626 327.16876 527.48126 327.16876Q527.1219 327.16876 526.84064 327.3875Q526.575 327.59064 526.46564 327.96564Q526.27814 328.52814 526.27814 329.1844L526.27814 332.45L525.23126 332.45ZM529.2469 325.075L529.2469 323.85626L530.3094 323.85626L530.3094 325.075L529.2469 325.075ZM529.2469 332.45L529.2469 326.23126L530.3094 326.23126L530.3094 332.45L529.2469 332.45ZM533.96564 332.45L531.60626 326.23126L532.71564 326.23126L534.0594 329.95Q534.2625 330.5594 534.45 331.2Q534.59064 330.71564 534.84064 330.02814L536.23126 326.23126L537.3094 326.23126L534.95 332.45L533.96564 332.45ZM541.3094 331.6844Q540.71564 332.1844 540.16876 332.3875Q539.6375 332.59064 539.0125 332.59064Q537.98126 332.59064 537.4344 332.09064Q536.8875 331.59064 536.8875 330.8094Q536.8875 330.35626 537.09064 329.98126Q537.29376 329.59064 537.6375 329.3719Q537.98126 329.1375 538.40314 329.02814Q538.7 328.9344 539.34064 328.85626Q540.60626 328.71564 541.21564 328.4969Q541.21564 328.27814 541.21564 328.23126Q541.21564 327.575 540.91876 327.3094Q540.5125 326.96564 539.71564 326.96564Q538.98126 326.96564 538.6219 327.23126Q538.2625 327.48126 538.09064 328.1375L537.0594 327.9969Q537.2 327.34064 537.52814 326.9344Q537.85626 326.52814 538.46564 326.3094Q539.075 326.09064 539.8719 326.09064Q540.66876 326.09064 541.16876 326.27814Q541.66876 326.46564 541.90314 326.7469Q542.1375 327.02814 542.23126 327.46564Q542.27814 327.73126 542.27814 328.4344L542.27814 329.84064Q542.27814 331.3094 542.34064 331.7Q542.41876 332.09064 542.6219 332.45L541.5125 332.45Q541.35626 332.1219 541.3094 331.6844ZM541.21564 329.325Q540.6375 329.5594 539.4969 329.73126Q538.84064 329.825 538.575 329.95Q538.3094 330.0594 538.15314 330.27814Q538.0125 330.4969 538.0125 330.77814Q538.0125 331.2 538.325 331.48126Q538.65314 331.7625 539.2625 331.7625Q539.8719 331.7625 540.34064 331.4969Q540.825 331.23126 541.04376 330.7625Q541.21564 330.40314 541.21564 329.71564L541.21564 329.325ZM546.54376 331.5125L546.7 332.4344Q546.2469 332.52814 545.90314 332.52814Q545.325 332.52814 545.0125 332.35626Q544.7 332.16876 544.5594 331.8719Q544.4344 331.575 544.4344 330.6219L544.4344 327.04376L543.66876 327.04376L543.66876 326.23126L544.4344 326.23126L544.4344 324.6844L545.48126 324.0594L545.48126 326.23126L546.54376 326.23126L546.54376 327.04376L545.48126 327.04376L545.48126 330.6844Q545.48126 331.1375 545.52814 331.2625Q545.59064 331.3875 545.71564 331.46564Q545.84064 331.54376 546.075 331.54376Q546.2625 331.54376 546.54376 331.5125ZM551.4969 330.45L552.59064 330.575Q552.34064 331.52814 551.6375 332.0594Q550.9344 332.59064 549.85626 332.59064Q548.4969 332.59064 547.6844 331.7469Q546.8875 330.90314 546.8875 329.3875Q546.8875 327.825 547.7 326.96564Q548.5125 326.09064 549.79376 326.09064Q551.04376 326.09064 551.825 326.9344Q552.6219 327.77814 552.6219 329.325Q552.6219 329.41876 552.6219 329.60626L547.98126 329.60626Q548.04376 330.6375 548.5594 331.1844Q549.075 331.71564 549.85626 331.71564Q550.4344 331.71564 550.84064 331.41876Q551.2625 331.10626 551.4969 330.45ZM548.04376 328.7469L551.5125 328.7469Q551.45 327.95 551.1219 327.5594Q550.60626 326.95 549.8094 326.95Q549.075 326.95 548.575 327.4344Q548.09064 327.91876 548.04376 328.7469ZM556.9969 329.6844L558.0594 329.59064Q558.1375 330.2469 558.41876 330.65314Q558.7 331.0594 559.27814 331.325Q559.8719 331.575 560.60626 331.575Q561.2469 331.575 561.7469 331.3875Q562.2469 331.1844 562.48126 330.85626Q562.73126 330.5125 562.73126 330.1219Q562.73126 329.71564 562.4969 329.41876Q562.2625 329.10626 561.73126 328.90314Q561.3719 328.7625 560.1844 328.48126Q559.0125 328.2 558.54376 327.95Q557.91876 327.6219 557.6219 327.15314Q557.325 326.66876 557.325 326.075Q557.325 325.4344 557.6844 324.8719Q558.0594 324.29376 558.7625 324.0125Q559.48126 323.71564 560.34064 323.71564Q561.29376 323.71564 562.02814 324.02814Q562.7625 324.325 563.15314 324.9344Q563.54376 325.52814 563.575 326.27814L562.48126 326.35626Q562.3875 325.54376 561.8719 325.1375Q561.3719 324.71564 560.3875 324.71564Q559.35626 324.71564 558.8875 325.09064Q558.41876 325.46564 558.41876 325.9969Q558.41876 326.46564 558.7469 326.7625Q559.075 327.0594 560.45 327.3719Q561.84064 327.6844 562.35626 327.91876Q563.10626 328.27814 563.46564 328.8094Q563.825 329.325 563.825 330.02814Q563.825 330.71564 563.4344 331.325Q563.04376 331.91876 562.3094 332.2625Q561.575 332.59064 560.65314 332.59064Q559.48126 332.59064 558.6844 332.2625Q557.90314 331.91876 557.45 331.23126Q557.0125 330.54376 556.9969 329.6844ZM569.3094 331.6844Q568.71564 332.1844 568.16876 332.3875Q567.6375 332.59064 567.0125 332.59064Q565.98126 332.59064 565.4344 332.09064Q564.8875 331.59064 564.8875 330.8094Q564.8875 330.35626 565.09064 329.98126Q565.29376 329.59064 565.6375 329.3719Q565.98126 329.1375 566.40314 329.02814Q566.7 328.9344 567.34064 328.85626Q568.60626 328.71564 569.21564 328.4969Q569.21564 328.27814 569.21564 328.23126Q569.21564 327.575 568.91876 327.3094Q568.5125 326.96564 567.71564 326.96564Q566.98126 326.96564 566.6219 327.23126Q566.2625 327.48126 566.09064 328.1375L565.0594 327.9969Q565.2 327.34064 565.52814 326.9344Q565.85626 326.52814 566.46564 326.3094Q567.075 326.09064 567.8719 326.09064Q568.66876 326.09064 569.16876 326.27814Q569.66876 326.46564 569.90314 326.7469Q570.1375 327.02814 570.23126 327.46564Q570.27814 327.73126 570.27814 328.4344L570.27814 329.84064Q570.27814 331.3094 570.34064 331.7Q570.41876 332.09064 570.6219 332.45L569.5125 332.45Q569.35626 332.1219 569.3094 331.6844ZM569.21564 329.325Q568.6375 329.5594 567.4969 329.73126Q566.84064 329.825 566.575 329.95Q566.3094 330.0594 566.15314 330.27814Q566.0125 330.4969 566.0125 330.77814Q566.0125 331.2 566.325 331.48126Q566.65314 331.7625 567.2625 331.7625Q567.8719 331.7625 568.34064 331.4969Q568.825 331.23126 569.04376 330.7625Q569.21564 330.40314 569.21564 329.71564L569.21564 329.325ZM572.21564 332.45L572.21564 323.85626L573.27814 323.85626L573.27814 332.45L572.21564 332.45ZM579.4969 330.45L580.59064 330.575Q580.34064 331.52814 579.6375 332.0594Q578.9344 332.59064 577.85626 332.59064Q576.4969 332.59064 575.6844 331.7469Q574.8875 330.90314 574.8875 329.3875Q574.8875 327.825 575.7 326.96564Q576.5125 326.09064 577.79376 326.09064Q579.04376 326.09064 579.825 326.9344Q580.6219 327.77814 580.6219 329.325Q580.6219 329.41876 580.6219 329.60626L575.98126 329.60626Q576.04376 330.6375 576.5594 331.1844Q577.075 331.71564 577.85626 331.71564Q578.4344 331.71564 578.84064 331.41876Q579.2625 331.10626 579.4969 330.45ZM576.04376 328.7469L579.5125 328.7469Q579.45 327.95 579.1219 327.5594Q578.60626 326.95 577.8094 326.95Q577.075 326.95 576.575 327.4344Q576.09064 327.91876 576.04376 328.7469Z" fill-rule="nonzero"/><path fill="#9e9e9e" d="M553.95 347.2L555.0594 347.10626Q555.1844 347.91876 555.6219 348.325Q556.075 348.73126 556.71564 348.73126Q557.46564 348.73126 557.9969 348.15314Q558.52814 347.575 558.52814 346.6375Q558.52814 345.73126 558.0125 345.21564Q557.5125 344.6844 556.6844 344.6844Q556.1844 344.6844 555.7625 344.91876Q555.35626 345.15314 555.1219 345.5125L554.1375 345.3875L554.96564 340.98126L559.2469 340.98126L559.2469 341.98126L555.8094 341.98126L555.35626 344.29376Q556.1219 343.7469 556.96564 343.7469Q558.09064 343.7469 558.85626 344.52814Q559.6375 345.3094 559.6375 346.54376Q559.6375 347.7 558.96564 348.5594Q558.1375 349.59064 556.71564 349.59064Q555.54376 349.59064 554.79376 348.9344Q554.0594 348.27814 553.95 347.2ZM561.54376 349.45L561.54376 348.2469L562.7469 348.2469L562.7469 349.45L561.54376 349.45ZM563.95 345.21564Q563.95 343.6844 564.2625 342.7625Q564.575 341.825 565.1844 341.325Q565.8094 340.825 566.7469 340.825Q567.4344 340.825 567.95 341.10626Q568.48126 341.3875 568.825 341.91876Q569.16876 342.4344 569.35626 343.1844Q569.54376 343.9344 569.54376 345.21564Q569.54376 346.73126 569.23126 347.65314Q568.9344 348.575 568.3094 349.09064Q567.7 349.59064 566.7469 349.59064Q565.5125 349.59064 564.79376 348.7Q563.95 347.6375 563.95 345.21564ZM565.02814 345.21564Q565.02814 347.325 565.52814 348.02814Q566.02814 348.73126 566.7469 348.73126Q567.48126 348.73126 567.96564 348.02814Q568.46564 347.325 568.46564 345.21564Q568.46564 343.09064 567.96564 342.40314Q567.48126 341.7 566.73126 341.7Q566.0125 341.7 565.575 342.3094Q565.02814 343.09064 565.02814 345.21564ZM571.15314 342.91876Q571.15314 341.9969 571.60626 341.35626Q572.075 340.71564 572.95 340.71564Q573.7625 340.71564 574.29376 341.29376Q574.825 341.8719 574.825 342.98126Q574.825 344.075 574.27814 344.66876Q573.7469 345.2469 572.96564 345.2469Q572.1844 345.2469 571.66876 344.66876Q571.15314 344.09064 571.15314 342.91876ZM572.98126 341.4344Q572.59064 341.4344 572.325 341.77814Q572.075 342.1219 572.075 343.02814Q572.075 343.85626 572.325 344.2Q572.59064 344.52814 572.98126 344.52814Q573.3875 344.52814 573.6375 344.1844Q573.90314 343.84064 573.90314 342.95Q573.90314 342.10626 573.6375 341.77814Q573.3719 341.4344 572.98126 341.4344ZM572.98126 349.7625L577.6844 340.71564L578.54376 340.71564L573.85626 349.7625L572.98126 349.7625ZM576.7 347.4344Q576.7 346.5125 577.15314 345.8719Q577.6219 345.23126 578.5125 345.23126Q579.325 345.23126 579.85626 345.8094Q580.3875 346.3719 580.3875 347.4969Q580.3875 348.59064 579.84064 349.1844Q579.3094 349.7625 578.5125 349.7625Q577.7469 349.7625 577.21564 349.1844Q576.7 348.60626 576.7 347.4344ZM578.54376 345.95Q578.1375 345.95 577.8719 346.29376Q577.6219 346.6375 577.6219 347.54376Q577.6219 348.35626 577.8875 348.7Q578.15314 349.04376 578.54376 349.04376Q578.9344 349.04376 579.2 348.7Q579.46564 348.35626 579.46564 347.45Q579.46564 346.6219 579.2 346.29376Q578.9344 345.95 578.54376 345.95Z" fill-rule="nonzero"/><path stroke="#757575" stroke-width="1.0" stroke-linecap="butt" d="M581.45 336.95L472.95 336.95L358.2001 333.03812" fill-rule="nonzero"/><path fill="#9e9e9e" d="M360.2001 333.03812C360.2001 331.93356 359.3047 331.03812 358.2001 331.03812C357.09555 331.03812 356.2001 331.93356 356.2001 333.03812C356.2001 334.1427 357.09555 335.03812 358.2001 335.03812C359.3047 335.03812 360.2001 334.1427 360.2001 333.03812" fill-rule="nonzero"/></svg>